<?xml version="1.0" encoding="utf-8"?>
<!-- Generator: Adobe Illustrator 18.1.1, SVG Export Plug-In . SVG Version: 6.00 Build 0)  -->
<svg version="1.1" id="Lager_1" xmlns="http://www.w3.org/2000/svg" xmlns:xlink="http://www.w3.org/1999/xlink" x="0px" y="0px"
	 viewBox="34 9.4 1131.8 606.7" enable-background="new 34 9.4 1131.8 606.7" xml:space="preserve">
<path fill="#6A747C" d="M34,565.2v-69.3l157.5-183c15.4-18.4,21.9-31.4,21.9-50.9c0-31.4-18.4-52.7-50.9-52.7
	c-25.5,0-51.5,13-51.5,53.9H34c0-77,56.2-123.1,128.5-123.1c74.6,0,127.9,46.8,127.9,122.6c0,40.9-16,62.8-45,96.5L127.6,495.9
	h162.8v69.3H34z"/>
<path fill="#6A747C" d="M554.3,505.4v59.8h-74v-59.8H307.9v-72.8l144.5-288.9h84.1L391.9,432.6h88.3v-78.7h74v78.7h38.5v72.8
	L554.3,505.4L554.3,505.4z"/>
<g>
	<path fill="#E3E4E5" d="M631.8,334.6c-1.1-9.1-1.7-18.4-1.7-27.8c0-9.1,0.6-18.2,1.6-27H571c-0.8,9.1-1.3,18.4-1.3,27.7
		c0,9.1,0.5,18.2,1.3,27.1L631.8,334.6L631.8,334.6z"/>
	<path fill="#E3E4E5" d="M867.7,9.4C719.9,9.4,597.3,116.9,573.8,258h61.4C657.6,150.6,752.9,69.8,867,69.8
		c130.9,0,236.9,106.1,236.9,236.9s-106,237-236.9,237c-9,0-17.8-0.5-26.6-1.5l-21.6,59.3c15.9,2.6,32.2,4.1,48.9,4.1
		c164.6,0,298.1-133.5,298.1-298.1S1032.4,9.4,867.7,9.4z"/>
</g>
<path fill="#A5CD39" d="M656.3,306.8c0-9.1,1.6-27,1.6-27H894v54.6L784.5,616.1h-66.8l109.4-281.6c0,0-167.5,0.1-169.1,0
	C658,334.6,656.3,316.2,656.3,306.8z"/>
</svg>
