<?xml version="1.0" encoding="utf-8"?>
<!-- Generator: Adobe Illustrator 18.1.1, SVG Export Plug-In . SVG Version: 6.00 Build 0)  -->
<svg version="1.1" id="Lager_1" xmlns="http://www.w3.org/2000/svg" xmlns:xlink="http://www.w3.org/1999/xlink" x="0px" y="0px"
	 viewBox="26.5 121.5 1157.9 426.8" enable-background="new 26.5 121.5 1157.9 426.8" xml:space="preserve">
<g>
	<path fill="#1253A4" d="M26.5,243V121.5h156.6c6.1,0,11.3,3.6,13.8,8.8l48.6,106.5c0.8,1.9,1.3,4,1.3,6.1L26.5,243"/>
	<path fill="#1253A4" d="M354.8,380.5c-25.5,0-46.2-21.2-46.2-47.2s20.7-47.2,46.2-47.2c24.7,0,45.6,21.6,45.6,47.2
		C400.3,358.9,379.5,380.5,354.8,380.5 M399,260.3c-11.5-10.5-28.2-16.5-46.9-16.5c-53.7,0-89.7,46.2-89.7,89.4
		c0,44,32.9,89.4,88.1,89.4c18.5,0,36.1-6.4,48.5-17.2v12.1h44.2V189.8H399V260.3z"/>
	<path fill="#1253A4" d="M877.7,375.8l19.8,11.3l-16.9,37l-4.1-2c-33.1-15.8-54.8-29-54.8-67.1v-71.7h-19.6V243h19.6v-53.2h44.2V243
		h27.5v40.5h-27.5v65.4C865.9,365.9,869.9,371.3,877.7,375.8"/>
	<path fill="#1253A4" d="M1184.4,387.2l-16.9,37l-4.1-2c-33.1-15.8-54.8-29-54.8-67.1V189.8h44.2v159.1c0,17.3,3.5,22.1,11.8,27
		L1184.4,387.2z"/>
	<path fill="#1253A4" d="M997.5,380.5c-25.5,0-46.2-21.2-46.2-47.2s20.7-47.2,46.2-47.2c24.7,0,45.6,21.6,45.6,47.2
		C1043,358.9,1022.2,380.5,997.5,380.5 M1041.7,260.3c-11.5-10.5-28.2-16.5-46.9-16.5c-53.7,0-89.7,46.2-89.7,89.4
		c0,44,32.9,89.4,88.1,89.4c18.5,0,36.1-6.4,48.5-17.2v12.1h44.2V243h-44.2V260.3z"/>
	<path fill="#1253A4" d="M493.6,175.5c-14.9,0-27,12.1-27,27s12.1,27,27,27s27-12.1,27-27S508.5,175.5,493.6,175.5 M471.6,243h44.2
		v174.6h-44.2L471.6,243L471.6,243z"/>
	<path fill="#1253A4" d="M758.1,175.5c-14.9,0-27,12.1-27,27s12.1,27,27,27s27-12.1,27-27S773,175.5,758.1,175.5 M736,243h44.2
		v174.6H736V243z"/>
	<path fill="#1253A4" d="M626.8,376.2c-25.2,0-43.6-19-43.6-45.2c0-24.8,19.5-44.9,43.6-44.9c23.7,0,42.9,20.3,42.9,45.2
		C669.7,356.9,651.3,376.2,626.8,376.2 M669.8,260.2L669.8,260.2c-11.9-10.7-27.6-16.3-45.9-16.3c-43.1,0-86.8,30.1-86.8,87.8
		c0,25.4,8.6,47.4,24.9,63.4c15.2,15,35.8,23.3,57.9,23.3c19.9,0,35.6-5.6,49.9-18.1h0.1v3.2c0,4.1-5.6,22.8-22,33.2
		c-16.3,10.4-38.6,9.2-66.1-3.4l-17.6,38.5c0,0,28.3,14.2,58.1,14.2c21.2,0,37.2-6.5,48.6-13.8c30.1-19.3,41.3-52.4,41.3-68.7V243
		h-42.3v17.2H669.8z"/>
</g>
<g>
	<g>
		<defs>
			<path id="SVGID_1_" d="M137.4,243L81.9,364.5L137,485.1h0.7l107.7-235.9c0.8-1.9,1.3-4,1.3-6.2L137.4,243z"/>
		</defs>
		<clipPath id="SVGID_2_">
			<use xlink:href="#SVGID_1_"  overflow="visible"/>
		</clipPath>
		
			<linearGradient id="SVGID_3_" gradientUnits="userSpaceOnUse" x1="176.3828" y1="13.8756" x2="179.5672" y2="13.8756" gradientTransform="matrix(38.5321 -82.6323 82.6323 38.5321 -7839.73 14535.3721)">
			<stop  offset="0" style="stop-color:#2ABDBF"/>
			<stop  offset="0.6137" style="stop-color:#3893BD"/>
			<stop  offset="1" style="stop-color:#4177BB"/>
		</linearGradient>
		<polygon clip-path="url(#SVGID_2_)" fill="url(#SVGID_3_)" points="-10.8,441.9 111.4,179.9 339.5,286.2 217.3,548.3 		"/>
	</g>
</g>
</svg>
