<?xml version="1.0" encoding="utf-8"?>
<!-- Generator: Adobe Illustrator 18.1.1, SVG Export Plug-In . SVG Version: 6.00 Build 0)  -->
<svg version="1.1" id="Lager_1" xmlns="http://www.w3.org/2000/svg" xmlns:xlink="http://www.w3.org/1999/xlink" x="0px" y="0px"
	 viewBox="25.6 153 1147 320" enable-background="new 25.6 153 1147 320" xml:space="preserve">
<path fill="#FF9900" d="M435.7,429.3c-38.4,28.5-94.1,43.7-142.1,43.7c-67.2,0-127.7-24.9-173.5-66.6c-3.6-3.3-0.4-7.7,4-5.2
	c49.4,28.9,110.5,46.3,173.6,46.3c42.6,0,89.4-8.9,132.4-27.3C436.6,417.6,442,424.7,435.7,429.3"/>
<path fill="#FF9900" d="M451.7,411c-4.9-6.3-32.5-3-44.9-1.5c-3.8,0.4-4.4-2.9-1-5.2c22-15.5,58-11.1,62.2-5.8
	c4.2,5.2-1.1,41.5-21.7,58.9c-3.2,2.7-6.2,1.2-4.8-2.3C446.2,443.4,456.6,417.3,451.7,411"/>
<path fill="#333333" d="M407.7,294.6v-15.1c0-2.3,1.7-3.8,3.8-3.8h67.3c2.1,0,3.9,1.6,3.9,3.8v12.9c0,2.2-1.8,5-5.1,9.5l-34.8,50
	c13-0.3,26.6,1.6,38.3,8.3c2.7,1.5,3.4,3.7,3.6,5.9v16.1c0,2.2-2.4,4.8-5,3.4c-20.7-10.9-48.2-12.1-71.1,0.1
	c-2.3,1.3-4.8-1.2-4.8-3.5V367c0-2.4,0-6.6,2.5-10.3l40.4-58.2h-35.1C409.4,298.4,407.7,296.9,407.7,294.6"/>
<path fill="#333333" d="M162.3,388.8h-20.5c-1.9-0.1-3.5-1.6-3.7-3.4V279.8c0-2.1,1.7-3.8,3.9-3.8h19.1c2,0.1,3.6,1.6,3.7,3.5v13.8
	h0.4c5-13.3,14.3-19.5,26.9-19.5c12.8,0,20.8,6.2,26.6,19.5c5-13.3,16.2-19.5,28.3-19.5c8.6,0,18,3.5,23.7,11.6
	c6.5,8.9,5.2,21.7,5.2,33.1l-0.1,66.6c0,2.1-1.7,3.8-3.9,3.8h-20.4c-2-0.1-3.6-1.8-3.6-3.8v-55.9c0-4.5,0.4-15.6-0.6-19.8
	c-1.5-7.1-6.1-9.1-12-9.1c-5,0-10.1,3.3-12.2,8.7c-2.1,5.3-1.9,14.2-1.9,20.2V385c0,2.1-1.8,3.8-4,3.8h-20.4
	c-2.1-0.1-3.7-1.8-3.7-3.8v-55.9c0-11.8,1.9-29.1-12.6-29.1c-14.7,0-14.1,16.9-14.1,29.1V385C166.3,387.2,164.5,388.8,162.3,388.8"
	/>
<path fill="#333333" d="M540.7,295.3c-15.1,0-16,20.7-16,33.6s-0.2,40.4,15.8,40.4c15.8,0,16.6-22.2,16.6-35.8c0-8.9-0.4-19.6-3-28
	C551.8,298.2,547.2,295.3,540.7,295.3 M540.5,273.8c30.3,0,46.8,26.2,46.8,59.5c0,32.2-18.1,57.8-46.8,57.8c-29.8,0-46-26.2-46-58.8
	C494.5,299.3,510.9,273.8,540.5,273.8"/>
<path fill="#333333" d="M626.7,388.8h-20.4c-2.1-0.1-3.7-1.8-3.7-3.8V279.4c0.2-1.9,1.9-3.4,3.9-3.4h19c1.8,0.1,3.3,1.3,3.7,2.9
	v16.2h0.4c5.7-14.5,13.7-21.3,27.9-21.3c9.1,0,18.2,3.3,23.9,12.4c5.4,8.5,5.4,22.7,5.4,32.9v66.4c-0.2,1.9-1.9,3.3-3.9,3.3h-20.5
	c-1.9-0.1-3.4-1.5-3.6-3.3v-57.3c0-11.6,1.4-28.4-12.8-28.4c-5,0-9.6,3.4-11.8,8.4c-2.9,6.5-3.2,12.9-3.2,20V385
	C630.7,387.2,628.9,388.8,626.7,388.8"/>
<path fill="#333333" d="M390.5,369.4c-3.7-5.2-7.7-9.4-7.7-19.1v-32c0-13.6,1-26-9-35.4c-7.9-7.5-20.9-10.2-30.9-10.2
	c-19.4,0-41.1,7.4-45.7,31.5c-0.5,2.7,1.4,4,3.1,4.4l19.8,2.1c1.8-0.1,3.2-1.9,3.5-3.8c1.8-8.3,8.7-12.3,16.5-12.3
	c4.2,0,9,1.5,11.5,5.3c2.9,4.2,2.5,10,2.5,14.9v2.7c-11.9,1.3-27.4,2.2-38.5,7.1c-12.8,5.6-21.8,16.9-21.8,33.6
	c0,21.4,13.4,32.1,30.6,32.1c14.6,0,22.6-3.5,33.8-15c3.7,5.4,4.9,8,11.7,13.7c1.5,0.8,3.5,0.8,4.8-0.5c4.1-3.5,11.5-10.1,15.8-13.6
	C392.1,373.5,391.8,371.3,390.5,369.4z M350.3,360.2c-3.3,5.8-8.4,9.3-14.1,9.3c-7.9,0-12.5-6-12.5-14.9c0-17.5,15.6-20.7,30.4-20.7
	v4.5C354.1,346.4,354.3,353.1,350.3,360.2z"/>
<path fill="#333333" d="M122.3,369.4c-3.7-5.2-7.7-9.4-7.7-19.1v-32c0-13.6,1-26-9-35.4c-7.8-7.5-20.8-10.2-30.8-10.2
	c-19.5,0-41.2,7.4-45.8,31.5c-0.5,2.7,1.4,4,3,4.4l19.9,2.1c1.8-0.1,3.1-1.9,3.5-3.8c1.7-8.3,8.7-12.3,16.5-12.3
	c4.2,0,9,1.5,11.5,5.3c2.9,4.2,2.5,10,2.5,14.9v2.7c-11.9,1.3-27.4,2.2-38.5,7.1c-12.8,5.6-21.8,16.9-21.8,33.6
	c0,21.4,13.4,32.1,30.6,32.1c14.6,0,22.6-3.5,33.8-15c3.7,5.4,4.9,8,11.7,13.7c1.5,0.8,3.5,0.8,4.8-0.5c4.1-3.5,11.5-10.1,15.8-13.6
	C123.9,373.5,123.6,371.3,122.3,369.4z M82,360.2c-3.3,5.8-8.4,9.3-14.2,9.3c-7.9,0-12.4-6-12.4-14.9c0-17.5,15.6-20.7,30.4-20.7
	v4.5C85.8,346.4,86,353.1,82,360.2z"/>
<path fill="#333333" d="M967.4,366.7c0.2-0.5,0.9-0.9,1.4-0.9s1.2,0.2,1.9,0.5c10.2,5.1,20.5,7.8,28.4,7.8
	c11.2,0,18.6-6.7,18.6-16.6c0-7.8-4-12.4-14.9-17.5c-15.6-7.1-20.5-9.7-26.1-14.3C969.5,320.1,966,313,966,304
	c0-18.6,14.7-32,35.4-32c12.1,0,30,5.8,30,9.7c0,0.5,0,0.5-0.5,1.6l-4.2,8.5c-0.5,0.7-1.4,1.4-2.1,1.4c-0.5,0-0.9-0.2-1.9-0.5
	c-8.8-4.1-15.6-6-21.9-6c-11.2,0-17.7,5.7-17.7,15.4c0,4.4,1.6,8.5,4.6,11.3c3.3,3,3.3,3,24.4,13.1c17.2,8.3,23.3,15.9,23.3,29.7
	c0,19.5-14.9,32.7-37,32.7c-11.6,0-24.9-3.5-34.4-9c-1.2-0.7-1.4-1.1-1.4-2.1c0-0.5,0-0.5,0.2-0.9L967.4,366.7z"/>
<path fill="#333333" d="M1055.1,280c0-2.3,0.2-2.8,2.6-2.8h12.3c2.1,0,2.6,0.5,2.6,2.8v104.8c0,2.3-1.9,4-4,4h-9.8
	c-2.1,0-3.6-1.8-3.6-4.2L1055.1,280L1055.1,280z"/>
<path fill="#333333" d="M1167.4,297.5c-0.7,1.2-1.2,1.6-1.9,1.6c-0.5,0-1.2-0.2-1.9-0.9c-11.4-8.4-16-10.5-24-10.5
	c-18.6,0-28.1,14.7-28.1,43.3c0,29.1,8.6,43.5,25.8,43.5c9.3,0,14.2-2.1,27.4-11.4c0.7-0.5,1.2-0.7,1.6-0.7c0.7,0,1.2,0.5,1.6,1.4
	l3.5,8.8c0.2,0.7,0.7,2.1,0.7,2.3c0,1.2-1.2,2.6-3.7,4.4c-9.5,7-21.2,10.9-32.6,10.9c-27.7,0-43.9-21.2-43.9-56.5
	c0-38.1,17.9-61.6,47.2-61.6c10,0,19.8,3,28.4,9.1c3.7,2.6,5.1,4.2,5.1,5.8l-0.2,1.4L1167.4,297.5z"/>
<path fill="#333333" d="M846.7,309.3c0-13.2,0-35.5-29.9-35.5c-11.7,0-21.8,7.9-26.9,17.8c-3.6-12.8-11.5-17.8-24.6-17.8
	c-10.8,0-22.3,5.6-27.2,15.5v-9.1c0-2-1.6-3.7-3.7-3.8h-2.5H725h-1c-2.1,0-3.7,1.5-3.9,3.4v105.1c0,2,1.6,3.6,3.7,3.8h2.5h6.8h1
	c2.1,0,3.8-1.5,3.9-3.4v-74.4v0.6c0-17.6,13-22.6,21.2-22.6c12.5,0,14.8,10.2,15.2,18.5v78.3c0.4,1.7,2,3,4.1,3.2h2.1h5.2h2.7
	c2,0,3.7-1.3,3.9-2.8V311c0.3-17.1,13-22.1,21.2-22.1c12.8,0,14.9,10.6,15.2,19.1v77.7c0,1.5,1.4,2.7,3.1,3v0.1h0.6h6.8h3.5
	c2.1,0,3.7-1.2,3.9-2.8v-21.1l0,0V309.3z"/>
<path fill="#333333" d="M870,372.2c2.2,5.8,10.6,17.8,27.6,17.8c15.9,0,25.2-5.6,30-15.5v9.1c0,2,1.6,3.7,3.6,3.8h2.4h6.7h1
	c2,0,3.7-1.5,3.9-3.4V278.8c0-2-1.6-3.7-3.7-3.8h-2.4h-6.7h-1c-2,0-3.7,1.5-3.9,3.4v74.4v-0.6c0,17.6-19.4,22.6-27.5,22.6
	c-12.3,0-14.5-10.2-14.9-18.5V278c-0.4-1.7-2-3-4-3.1H879h-5.1h-2.6c-2,0-3.7,1.3-3.8,2.8v75.1C867.5,352.8,867.9,366.3,870,372.2"
	/>
<path fill="#333333" d="M1070,230.4h-12.3c-2.3,0-2.6,0.4-2.6,2.5v1.8v8.9v1.7c0,2.1,0.5,2.5,2.6,2.5h12.3c2.3,0,2.6-0.4,2.6-2.5
	v-1.8v-8.9V233C1072.6,230.9,1072.1,230.4,1070,230.4"/>
<rect x="719.3" y="230.3" fill="#FF9900" width="97.7" height="17.2"/>
<rect x="719.3" y="204.5" fill="#FF9900" width="97.7" height="17.2"/>
<rect x="719.3" y="178.8" fill="#FF9900" width="97.7" height="17.2"/>
<rect x="719.3" y="153" fill="#FF9900" width="97.7" height="17.2"/>
<rect x="825.5" y="230.3" fill="#FF9900" width="97.7" height="17.2"/>
<rect x="825.5" y="204.5" fill="#FF9900" width="97.7" height="17.2"/>
<rect x="931.8" y="230.3" fill="#FF9900" width="97.7" height="17.2"/>
<rect x="931.8" y="204.5" fill="#FF9900" width="97.7" height="17.2"/>
<rect x="931.8" y="178.8" fill="#FF9900" width="97.7" height="17.2"/>
</svg>
