<?xml version="1.0" encoding="utf-8"?>
<!-- Generator: Adobe Illustrator 17.1.0, SVG Export Plug-In . SVG Version: 6.00 Build 0)  -->
<!DOCTYPE svg PUBLIC "-//W3C//DTD SVG 1.1//EN" "http://www.w3.org/Graphics/SVG/1.1/DTD/svg11.dtd">
<svg version="1.1" id="Layer_1" xmlns="http://www.w3.org/2000/svg" xmlns:xlink="http://www.w3.org/1999/xlink" x="0px" y="0px"
	 viewBox="0 0 290.9 36" enable-background="new 0 0 290.9 36" xml:space="preserve">
<g>
	<path fill="#231F20" d="M246,17.7h4.2c2.6,0,3.5-1.8,3.5-5.5c0-3.5-1.2-5.1-3.5-5.1H246V17.7z M243.8,30.8V5.4h6.2
		c4.5,0,6,3.2,6,6.9c0,3.6-1.2,7.3-6,7.3h-4v11.3h-2.2V30.8z"/>
	<path fill="#231F20" d="M263.2,16.6h4.5c2.7,0,3.2-2.3,3.2-4.7c0-2.5-0.6-4.7-3.2-4.7h-4.5V16.6z M261,30.8V5.4h6.8
		c4.4,0,5.5,3,5.5,6.6c0,2.6-0.8,5.1-3.6,6.2l3.9,12.7h-2.4l-3.7-12.4h-4.3v12.4H261V30.8z"/>
	<path fill="#231F20" d="M277.9,23.4V12.8c0-4.3,1.6-7.8,6.5-7.8s6.5,3.5,6.5,7.8v10.7c0,4.3-1.4,7.8-6.5,7.8
		C279.4,31.2,277.9,27.7,277.9,23.4 M288.7,23.9V12.3c0-3-0.9-5.5-4.2-5.5c-3.3,0-4.2,2.4-4.2,5.5V24c0,3,0.9,5.5,4.2,5.5
		C287.7,29.4,288.7,27,288.7,23.9"/>
	<path fill="#A9CF38" d="M222.5,26.4c0.1,0,0.9,0,1.2,0l0,0c0.5,0,1.1,0.4,1.2,1v2.7c0,0.2,0,0.8-1.1,0.9c-0.8,0-1.5,0-1.5,0
		c-11,0-10.6-10.6-10.6-10.6v-19c0-0.6,0.5-1.1,1.1-1.1h2.5c0.6,0,1.1,0.5,1.1,1.1v4h8.4c0.6,0,1,0.7,1,1v2.7c0,0.5-0.5,1-1,1
		c-0.3,0-7,0-8.4,0v10.2C216.3,20.2,216,26.5,222.5,26.4"/>
	<path fill="#A9CF38" d="M197.6,29.9c0,0.6-0.5,1.1-1.1,1.1H194c-0.6,0-1-0.5-1-1.1V16c0,0-0.4-10.7,10.6-10.6c0,0,3.9,0,4.7,0
		c1.1,0.1,1.1,0.7,1.1,0.9V9c0,0.7-0.7,1-1.2,1l0,0c-0.3,0-4.3,0-4.5,0c-6.5,0-6.2,6.2-6.2,6.2L197.6,29.9L197.6,29.9z"/>
	<path fill="#A9CF38" d="M139.4,26.8c0.1,0,0.9,0,1.2,0l0,0c0.5,0,1.1,0.4,1.2,1v2.7c0,0.2,0,0.8-1.1,0.9c-0.8,0-1.5,0-1.5,0
		c-11,0-10.6-10.6-10.6-10.6v-19c0-0.6,0.5-1.1,1.1-1.1h2.5c0.6,0,1.1,0.5,1.1,1.1v4h8.4c0.6,0,1,0.7,1,1v2.7c0,0.5-0.5,1-1,1
		c-0.3,0-7,0-8.4,0v10.2C133.2,20.6,132.9,26.8,139.4,26.8"/>
	<path fill="#A9CF38" d="M88.5,10.1h8.1c1.5,0.2,2,0.9,2,2.7v1.8c-0.1,1.3-0.2,2.7-2.7,2.7h-9.8v-4.4C86.2,10.2,87.5,10.1,88.5,10.1
		 M100.5,26.4H89c-2.6,0-2.8-1.1-2.8-4.4v-0.1c1.5,0,6.1,0,9.9,0c4.5,0,7.1-2.7,7.2-7.6v-1.5c0-4.6-2.8-7.4-7.4-7.4H91h-2.1
		c-4.8,0-7.2,2.5-7.4,7.7V22c0,4.5,0.9,9.1,7.4,9.1h11.5c0.8,0,1.3-0.4,1.3-1.2v-2.4C101.8,27,101.6,26.4,100.5,26.4"/>
	<path fill="#A9CF38" d="M183.4,26.4l-3.2,0.1h-4.1c-2.1,0-2.8-0.7-2.8-2.7v-11c0-2.6,1.3-2.6,2.3-2.7h7.3c2.6,0,2.8,1.1,2.8,4.4
		v9.2C185.7,26.2,184.5,26.3,183.4,26.4 M190.4,14.5c0-4.5-0.9-9.1-7.4-9.1h-7c-4.8,0-7.2,2.5-7.4,7.7v10.6c0,4.6,2.8,7.4,7.4,7.4
		h4.1l0,0h2.9c4.8,0,7.2-2.5,7.4-7.7V14.5z"/>
	<path fill="#A9CF38" d="M72.5,26.3h-3.2l0,0H65c-2.1,0-2.8-0.7-2.8-2.8V9.7H72c2.6,0,2.8,1.1,2.8,4.5v9.3
		C74.7,26.2,73.5,26.2,72.5,26.3 M79.4,14.3c0-4.5-0.9-9.2-7.5-9.2h-9.8v-4C62.1,0.5,61.6,0,61,0h-2.5c-0.6,0-1.1,0.5-1.1,1.1v22.5
		c0,4.6,2.8,7.4,7.5,7.4h4.9H72c4.8,0,7.2-2.5,7.4-7.7V20l0,0C79.4,20,79.4,14.3,79.4,14.3z"/>
	<path fill="#A9CF38" d="M119.2,26.4h-8c-1.6-0.1-2.2-0.9-2.2-2.7v-1.8c0.1-1.3,0.2-2.7,2.7-2.7h9.8v4.4
		C121.5,26.2,120.2,26.3,119.2,26.4 M126.1,18.5v-4c0-4.5-0.9-9.1-7.4-9.1h-11.5c-0.8,0-1.3,0.4-1.3,1.2V9c0,0.4,0.2,1,1.3,1.1h11.5
		c2.6,0,2.8,1.1,2.8,4.4v0.1c-1.5,0-6.1,0-9.9,0c-4.5,0-7.1,2.7-7.2,7.6v1.5c0,4.6,2.8,7.4,7.4,7.4h4.1l0,0h2.9
		c4.8,0,7.2-2.5,7.4-7.7L126.1,18.5L126.1,18.5z"/>
	<path fill="#A9CF38" d="M160.9,25.8c-0.4,0.4-1.1,0.6-2.2,0.6H149V12.8c0-2,0.7-2.8,2.8-2.8h7.7c0.6,0.1,1.1,0.3,1.4,0.6
		c0.6,0.6,0.6,1.8,0.6,3.1c0,0.1,0,8.8,0,9.1C161.5,24,161.5,25.2,160.9,25.8 M166.1,14.4c0-4.7-0.9-9-7.4-9h-6.9
		c-4.7,0-7.4,2.8-7.4,7.4v22.1c0,0.7,0.3,1.1,0.9,1.1h2.7c0.6,0,1.1-0.5,1.1-1.1V31h9.7c6.5,0,7.4-4.3,7.4-9v-2L166.1,14.4z"/>
	<path fill="#A9CF38" d="M42.6,18.2c0-9.9-8-17.9-17.9-17.9S6.8,8.3,6.8,18.2c0,4.6,1.7,8.9,4.9,12.2l0,0c0.4,0.4,1.1,0.5,1.6,0
		l1.9-1.8c0.4-0.4,0.5-1.1,0.1-1.6l0,0c-2.3-2.4-3.5-5.6-3.5-8.9c0-7.2,5.8-13,13-13s13,5.8,13,13c0,3.3-1.3,6.5-3.5,8.9l0,0
		c-0.4,0.4-0.4,1.1,0.1,1.6l1.9,1.8c0.4,0.4,1.1,0.4,1.6,0l0,0C40.8,27.1,42.6,22.8,42.6,18.2"/>
	<path fill="#A9CF38" d="M49.3,18.1c0-2.4-0.4-4.8-1.1-7.2l0,0l0,0l0,0c-0.2-0.6-0.8-0.9-1.4-0.7L44.3,11c-0.6,0.2-0.9,0.8-0.7,1.4
		l0,0c0.6,1.8,0.9,3.8,0.9,5.7c0,3.4-0.9,6.8-2.7,9.8l0,0c-0.3,0.5-0.1,1.2,0.4,1.5l2.3,1.4c0.5,0.3,1.2,0.1,1.5-0.4
		C48.2,26.7,49.3,22.4,49.3,18.1"/>
	<path fill="#A9CF38" d="M7.6,27.9c-1.8-2.9-2.7-6.3-2.7-9.8c0-1.9,0.3-3.9,0.9-5.7l0,0l0,0l0,0C5.9,11.8,5.6,11.2,5,11l-2.5-0.8
		c-0.6-0.2-1.2,0.1-1.4,0.7l0,0C0.4,13.3,0,15.7,0,18.1c0,4.3,1.2,8.6,3.4,12.3l0,0c0.3,0.5,1,0.7,1.5,0.4l2.3-1.4
		C7.7,29.1,7.9,28.4,7.6,27.9L7.6,27.9z"/>
	<path fill="#A9CF38" d="M228.5,26c-1.3,0-2.4,1.1-2.4,2.4c0,1.4,1.1,2.4,2.4,2.4c1.3,0,2.4-1.1,2.4-2.4C231,27.1,229.9,26,228.5,26
		 M228.5,30.2c-1.1,0-1.7-0.7-1.7-1.8c0-1.1,0.7-1.8,1.7-1.8s1.7,0.7,1.7,1.8C230.3,29.5,229.6,30.2,228.5,30.2"/>
	<path fill="#A9CF38" d="M228.7,27.3h-1.1v2.3h0.5v-0.9h0.4l0.5,0.9h0.6l-0.6-0.9c0.4,0,0.6-0.2,0.6-0.6
		C229.6,27.5,229.3,27.3,228.7,27.3 M228.7,28.3h-0.6v-0.6h0.5c0.2,0,0.6,0,0.6,0.3C229.2,28.3,229,28.3,228.7,28.3"/>
</g>
</svg>
