<?xml version="1.0" encoding="utf-8"?>
<!-- Generator: Adobe Illustrator 18.1.1, SVG Export Plug-In . SVG Version: 6.00 Build 0)  -->
<svg version="1.1" id="Lager_1" xmlns="http://www.w3.org/2000/svg" xmlns:xlink="http://www.w3.org/1999/xlink" x="0px" y="0px"
	 viewBox="7.4 182 1183.6 262.9" enable-background="new 7.4 182 1183.6 262.9" xml:space="preserve">
<g>
	<rect x="7.4" y="421.1" fill="#EC1C24" width="78.1" height="23.7"/>
	<rect x="7.4" y="390.4" fill="#EC1C24" width="78.1" height="23.7"/>
	<rect x="7.4" y="359.6" fill="#EC1C24" width="78.1" height="23.7"/>
	<rect x="7.4" y="328.8" fill="#F59579" width="78.1" height="23.7"/>
	<rect x="7.4" y="298.1" fill="#F59579" width="78.1" height="23.7"/>
	<rect x="95" y="421.1" fill="#FFF100" width="78.1" height="23.7"/>
	<rect x="95" y="390.4" fill="#FFF100" width="78.1" height="23.7"/>
	<rect x="95" y="359.6" fill="#FFF100" width="78.1" height="23.7"/>
	<rect x="182.6" y="421.1" fill="#EB008B" width="78.1" height="23.7"/>
	<rect x="182.6" y="390.4" fill="#EB008B" width="78.1" height="23.7"/>
	<rect x="182.6" y="359.6" fill="#EB008B" width="78.1" height="23.7"/>
	<rect x="182.6" y="328.8" fill="#F399C0" width="78.1" height="23.7"/>
	<rect x="182.6" y="298.1" fill="#F399C0" width="78.1" height="23.7"/>
	<rect x="182.6" y="267.3" fill="#F399C0" width="78.1" height="23.7"/>
	<rect x="182.6" y="236.5" fill="#F399C0" width="78.1" height="23.7"/>
	<rect x="270.2" y="421.1" fill="#BED630" width="78.1" height="23.7"/>
	<rect x="270.2" y="390.4" fill="#BED630" width="78.1" height="23.7"/>
	<rect x="270.2" y="359.6" fill="#BED630" width="78.1" height="23.7"/>
	<rect x="270.2" y="328.8" fill="#DCE799" width="78.1" height="23.7"/>
	<rect x="270.2" y="298.1" fill="#DCE799" width="78.1" height="23.7"/>
	<rect x="357.8" y="421.1" fill="#1FC3F3" width="78.1" height="23.7"/>
	<rect x="357.8" y="390.4" fill="#1FC3F3" width="78.1" height="23.7"/>
	<rect x="357.8" y="359.6" fill="#1FC3F3" width="78.1" height="23.7"/>
	<rect x="357.8" y="328.8" fill="#ABE0F9" width="78.1" height="23.7"/>
	<rect x="357.8" y="298" fill="#ABE0F9" width="78.1" height="23.7"/>
	<rect x="357.8" y="267.3" fill="#ABE0F9" width="78.1" height="23.7"/>
	<rect x="357.8" y="236.5" fill="#ABE0F9" width="78.1" height="23.7"/>
	<rect x="357.8" y="205.7" fill="#ABE0F9" width="78.1" height="23.7"/>
	<g>
		<path fill="#231F20" d="M466.6,182.1h58.6c59,0,64.5,20.6,64.5,97.1v78.1c0,67.3-13.5,87.6-71,87.6h-52.1V182.1z M502.1,414.2
			h18.3c26.9,0,31.3-14.2,31.3-59.3v-90.2c0-38.9-3.3-52-34.3-52H502L502.1,414.2L502.1,414.2z"/>
		<path fill="#231F20" d="M603.9,182.1h99.4v31.2h-63.9v82.4h59.2v30.8h-59.2v87.1h63.9v31.2h-99.4V182.1z"/>
		<path fill="#231F20" d="M717.6,182.1H817v31.2h-63.9v82.4h59.2v30.8h-59.2v87.1H817v31.2h-99.4V182.1z"/>
		<path fill="#231F20" d="M961.4,182.1h99.4v31.2h-63.9v82.4h59.2v30.8h-59.2v87.1h63.9v31.2h-99.4L961.4,182.1L961.4,182.1z"/>
		<path fill="#231F20" d="M831.2,414.1L913,212.8h-81.8V182h116v30.8L866.8,414h80.4v30.8h-116V414.1z"/>
		<path fill="#231F20" d="M1075,182.1h56.8c53.1,0,56.9,13.5,56.9,71c0,35.3-3.3,52.5-33.2,61.6l0,0c24.7,2.5,33.2,15.5,33.2,40.2
			V412c0,9.5,0.1,21.8,2.3,32.7h-35.5c-3.7-6.6-2.3-13-2.3-23.6v-59.3c0-24.8-4.7-30.7-28.7-30.7h-13.9v113.6h-35.5V182.1H1075z
			 M1110.5,298.1h11c28.8,0,33.1-3.5,33.1-42.8c0-38.9-3.5-42.4-26-42.4h-18.1V298.1z"/>
	</g>
</g>
</svg>
