<?xml version="1.0" encoding="utf-8"?>
<!-- Generator: Adobe Illustrator 18.1.1, SVG Export Plug-In . SVG Version: 6.00 Build 0)  -->
<svg version="1.1" id="Lager_1" xmlns="http://www.w3.org/2000/svg" xmlns:xlink="http://www.w3.org/1999/xlink" x="0px" y="0px"
	 viewBox="17.1 147.9 1165.4 331.8" enable-background="new 17.1 147.9 1165.4 331.8" xml:space="preserve">
<g>
	<g>
		<g>
			<path fill="#EC1C24" d="M113.6,353.4l8,13.5c-11.8,10.7-28,16.6-45.2,16.6c-37.1,0-59.3-26.9-59.3-71.2
				c0-22.6,4.5-37.4,16.1-50.6c10.7-12.6,23.9-18.8,40-18.8c14.5,0,27.4,5.1,36.3,14.8c11.6,11.8,14.8,24.5,15.3,56.4v3H41.2v3.2
				c0,12.6,1.6,22.2,6.1,29.3c7.6,11.6,19.9,16.4,33.4,16.4C93.6,366.1,104.1,362,113.6,353.4z M41.2,301.3h61.2
				c-0.2-14.5-2-23.5-6.1-29.8c-4.5-7.3-13.9-11.9-24.1-11.9C53.1,259.6,42.3,273.6,41.2,301.3z"/>
			<path fill="#4D4D4F" d="M156,248.3l20.4-4.8c2.8,5.3,4.9,13.2,4.9,18.8v1c6.1-6.4,8.8-8.3,16.4-12.9c8.5-5.1,15.1-7.3,22.5-7.3
				c10.6,0,20.7,5.4,26.6,13.5c2,2.6,3,4.2,4.6,8.8c12.9-13.7,29.4-22.3,43-22.3c19.9,0,33.7,15,33.7,36.3v101.1h-21.5v-99
				c0-12.9-6-19.6-17.2-19.6c-6.4,0-13.4,2.7-19.7,7.3c-3.9,2.9-8.6,6.7-13.5,11.3l-2.4,2.1v97.9h-21.2v-95.2
				c0-11.6-0.2-13.4-3.8-17.2c-3.1-3.8-7.4-5.4-13.7-5.4c-10.2,0-20.1,5.1-34.1,17.7v100h-20.2v-99.8
				C160.8,262.3,160.3,259.4,156,248.3z"/>
			<path fill="#4D4D4F" d="M372.1,247.8l20.8-4V340c0,13.2,1.5,18.1,7.8,22c4.4,3,10.7,5.1,16.6,5.1c13.1,0,26.9-9.7,34.2-24.2V248
				l20.7-3.5v94.9c0,15.4,0.5,19.9,3.2,25.1c1.3,3,2.5,4.2,5.9,7.5l-13.4,14.2c-8.8-7.3-12.6-12.6-14.5-21.5
				c-10.2,13.7-24.2,20.4-42.5,20.4c-16.9,0-30.1-7-35.2-19.1c-2.5-5.1-3.5-12.1-3.5-19.9v-98.3H372.1z"/>
			<path fill="#4D4D4F" d="M594.7,252.1l-7.8,15.6c-11.8-5.7-21.8-9.7-33.6-9.7c-15.3,0-25.3,8.9-25.3,22.1c0,4.9,1.4,8.8,3.8,11.8
				c2.9,3.8,7.6,5.9,15.6,7.5l17.8,3.8c24.2,5.3,35.7,17.5,35.7,37.3c0,26.1-20.4,43.8-50.5,43.8c-17,0-35.4-5.1-49.2-13.4l8-15.6
				c13.8,8.3,27.7,12.7,42.5,12.7c16.4,0,27.2-8.9,27.2-23.1c0-12.1-6.7-18.9-22.1-22.1l-16.7-3.5c-12.1-2.7-19.1-6.4-25.2-13.4
				c-5.7-6.5-8.6-14.5-8.6-23.4c0-24.2,19.7-41.1,47.5-41.1C567.8,241.4,583.3,245.7,594.7,252.1z"/>
			<path fill="#4D4D4F" d="M635.3,247.2l22.3-3.4v136.9h-22.3V247.2z"/>
			<path fill="#4D4D4F" d="M788.1,257.7l-11.5,14.5c-10.4-8.7-15.8-10.8-25.5-10.8c-10.5,0-20.5,5.9-25.3,15
				c-5.2,9.4-7.5,24.2-7.5,43.9c0,30.1,11.5,46.5,33,46.5c10.8,0,21-5.1,28.9-14.6l11.5,13.4c-12.4,12.7-24.2,17.8-40.9,17.8
				c-19.1,0-33.3-6.7-42.7-20.2c-8.8-12.8-12.9-27.7-12.9-47.5c0-29.3,8.7-45.7,20.2-57c10.5-10.5,22-15.6,36.3-15.6
				C768.6,243.2,778.5,249.7,788.1,257.7z"/>
		</g>
		<g>
			<path fill="#EC1C24" d="M1023.6,313.8c0,17.2-13.9,31.2-31.1,31.2c-17.2,0-31.2-14-31.2-31.2s13.9-31.2,31.2-31.2
				C1009.7,282.6,1023.6,296.6,1023.6,313.8z"/>
			<g>
				<path fill="#E2E3E4" d="M992.5,210.2c-9.4,0-17.8-4.2-23.6-10.8c-4.7,5.4-7.6,12.6-7.6,20.3c0,17.2,13.9,31.2,31.2,31.2
					c17.2,0,31.1-14,31.1-31.2c0-7.8-2.9-14.9-7.6-20.3C1010.3,206,1001.9,210.2,992.5,210.2z"/>
				<path fill="#4D4D4F" d="M992.5,188.7c9.4,0,17.8,4.2,23.5,10.8c4.7-5.5,7.6-12.6,7.6-20.4c0-17.2-13.9-31.2-31.1-31.2
					c-17.2,0-31.2,13.9-31.2,31.2c0,7.8,2.9,14.9,7.6,20.4C974.6,192.8,983,188.7,992.5,188.7z"/>
				<path fill="#A6A8AB" d="M992.5,210.2c9.4,0,17.8-4.2,23.5-10.8c-5.7-6.6-14.2-10.8-23.5-10.8c-9.4,0-17.8,4.2-23.6,10.8
					C974.6,206,983,210.2,992.5,210.2z"/>
			</g>
			<g>
				<path fill="#4D4D4F" d="M919.2,240.6c-6.7,6.6-15.6,9.6-24.3,9c0.5,7.2,3.5,14.3,9,19.8c12.2,12.2,31.9,12.2,44.1,0
					c12.2-12.2,12.2-31.9,0-44.1c-5.5-5.5-12.6-8.5-19.8-9C928.8,225,925.9,233.9,919.2,240.6z"/>
				<path fill="#E2E3E4" d="M904,225.3c6.7-6.7,15.6-9.7,24.3-9c-0.5-7.2-3.5-14.3-9-19.8c-12.2-12.2-31.9-12.2-44.1,0
					c-12.2,12.2-12.2,31.9,0,44.1c5.5,5.5,12.6,8.5,19.8,9C894.3,240.9,897.3,232,904,225.3z"/>
				<path fill="#A6A8AB" d="M919.2,240.6c6.7-6.6,9.6-15.6,9-24.3c-8.7-0.6-17.6,2.4-24.3,9c-6.7,6.7-9.7,15.6-9,24.3
					C903.6,250.2,912.6,247.2,919.2,240.6z"/>
			</g>
			<g>
				<path fill="#E2E3E4" d="M888.9,313.8c0,9.4-4.2,17.8-10.8,23.5c5.5,4.7,12.6,7.6,20.4,7.6c17.2,0,31.2-14,31.2-31.2
					s-14-31.2-31.2-31.2c-7.8,0-14.9,2.9-20.4,7.6C884.7,296,888.9,304.4,888.9,313.8z"/>
				<path fill="#4D4D4F" d="M867.3,313.8c0-9.4,4.2-17.8,10.8-23.6c-5.5-4.7-12.5-7.6-20.3-7.6c-17.2,0-31.2,14-31.2,31.2
					s13.9,31.2,31.2,31.2c7.8,0,14.9-2.9,20.3-7.6C871.5,331.6,867.3,323.2,867.3,313.8z"/>
				<path fill="#A6A8AB" d="M888.9,313.8c0-9.4-4.2-17.8-10.8-23.6c-6.6,5.7-10.8,14.1-10.8,23.6c0,9.4,4.2,17.8,10.8,23.5
					C884.7,331.6,888.9,323.2,888.9,313.8z"/>
			</g>
			<g>
				<path fill="#4D4D4F" d="M919.2,387c6.7,6.6,9.6,15.6,9,24.3c7.2-0.5,14.3-3.5,19.8-9c12.2-12.2,12.2-31.9,0-44.1
					c-12.1-12.2-31.9-12.2-44.1,0c-5.5,5.5-8.5,12.6-9,19.8C903.6,377.4,912.6,380.4,919.2,387z"/>
				<path fill="#E2E3E4" d="M904,402.3c-6.7-6.7-9.7-15.6-9-24.3c-7.2,0.5-14.3,3.5-19.8,9c-12.2,12.2-12.2,31.9,0,44.1
					s31.9,12.2,44.1,0c5.5-5.5,8.5-12.6,9-19.8C919.5,411.9,910.6,408.9,904,402.3z"/>
				<path fill="#A6A8AB" d="M919.2,387c-6.7-6.7-15.6-9.6-24.3-9c-0.6,8.7,2.3,17.6,9,24.3c6.7,6.7,15.6,9.6,24.3,9
					C928.8,402.6,925.9,393.7,919.2,387z"/>
			</g>
			<g>
				<path fill="#E2E3E4" d="M992.5,417.3c9.4,0,17.8,4.2,23.5,10.8c4.7-5.5,7.6-12.6,7.6-20.4c0-17.2-13.9-31.2-31.1-31.2
					c-17.2,0-31.2,13.9-31.2,31.2c0,7.8,2.9,14.9,7.6,20.4C974.6,421.5,983,417.3,992.5,417.3z"/>
				<path fill="#4D4D4F" d="M992.5,438.9c-9.4,0-17.8-4.2-23.6-10.8c-4.7,5.4-7.6,12.6-7.6,20.4c0,17.2,13.9,31.2,31.2,31.2
					c17.2,0,31.1-14,31.1-31.2c0-7.8-2.9-14.9-7.6-20.4C1010.3,434.7,1001.9,438.9,992.5,438.9z"/>
				<path fill="#A6A8AB" d="M992.5,417.3c-9.4,0-17.8,4.2-23.6,10.8c5.7,6.6,14.1,10.8,23.6,10.8c9.4,0,17.8-4.2,23.5-10.8
					C1010.3,421.5,1001.9,417.3,992.5,417.3z"/>
			</g>
			<g>
				<path fill="#4D4D4F" d="M1065.7,387c6.7-6.7,15.6-9.7,24.3-9c-0.5-7.2-3.5-14.3-9-19.8c-12.2-12.2-31.9-12.2-44.1,0
					s-12.2,31.9,0,44.1c5.5,5.5,12.6,8.5,19.8,9C1056,402.6,1059,393.7,1065.7,387z"/>
				<path fill="#E2E3E4" d="M1080.9,402.3c-6.7,6.7-15.6,9.6-24.3,9c0.5,7.2,3.5,14.3,9,19.8c12.2,12.2,31.9,12.2,44.1,0
					s12.2-31.9,0-44.1c-5.5-5.5-12.6-8.5-19.8-9C1090.6,386.7,1087.6,395.6,1080.9,402.3z"/>
				<path fill="#A6A8AB" d="M1065.7,387c-6.7,6.7-9.7,15.6-9,24.3c8.7,0.6,17.6-2.3,24.3-9c6.7-6.7,9.7-15.6,9-24.3
					C1081.3,377.4,1072.4,380.4,1065.7,387z"/>
			</g>
			<g>
				<path fill="#E2E3E4" d="M1096,313.8c0-9.4,4.2-17.8,10.8-23.6c-5.5-4.7-12.6-7.6-20.4-7.6c-17.2,0-31.2,14-31.2,31.2
					s13.9,31.2,31.2,31.2c7.8,0,14.9-2.9,20.4-7.6C1100.2,331.6,1096,323.2,1096,313.8z"/>
				<path fill="#4D4D4F" d="M1117.6,313.8c0,9.4-4.2,17.8-10.8,23.5c5.5,4.7,12.6,7.6,20.4,7.6c17.2,0,31.1-14,31.2-31.2
					c0-17.2-14-31.2-31.2-31.2c-7.8,0-14.9,2.9-20.4,7.6C1113.4,296,1117.6,304.4,1117.6,313.8z"/>
				<path fill="#A6A8AB" d="M1096,313.8c0,9.4,4.2,17.8,10.8,23.5c6.6-5.7,10.8-14.1,10.8-23.5s-4.2-17.8-10.8-23.6
					C1100.2,296,1096,304.4,1096,313.8z"/>
			</g>
			<g>
				<path fill="#4D4D4F" d="M1065.7,240.6c-6.7-6.6-9.7-15.6-9-24.3c-7.2,0.5-14.3,3.5-19.8,9c-12.2,12.2-12.2,31.9,0,44.1
					c12.2,12.2,31.9,12.2,44.1,0c5.5-5.5,8.5-12.6,9-19.8C1081.3,250.2,1072.4,247.2,1065.7,240.6z"/>
				<path fill="#E2E3E4" d="M1080.9,225.3c6.7,6.7,9.7,15.6,9,24.3c7.2-0.5,14.3-3.5,19.8-9c12.2-12.2,12.2-31.9,0-44.1
					c-12.1-12.2-31.9-12.2-44.1,0c-5.5,5.5-8.5,12.6-9,19.8C1065.4,215.7,1074.3,218.6,1080.9,225.3z"/>
				<path fill="#A6A8AB" d="M1065.7,240.6c6.7,6.6,15.6,9.6,24.3,9c0.6-8.7-2.4-17.6-9-24.3c-6.7-6.7-15.6-9.7-24.3-9
					C1056,225,1059,233.9,1065.7,240.6z"/>
			</g>
		</g>
		<path fill="#929497" d="M816.6,355.2c7.1,0,12.8,5.7,12.8,12.8c0,7.1-5.7,12.8-12.8,12.8s-12.8-5.7-12.8-12.8
			C803.8,360.9,809.5,355.2,816.6,355.2z M816.6,356.9c-6.1,0-11.1,4.9-11.1,11.1s4.9,11.1,11.1,11.1c6.2,0,11.1-4.9,11.1-11.1
			C827.7,361.8,822.7,356.9,816.6,356.9z M816.8,369.2h-3.2v6.8h-1.7v-15.2h5.8c3.5,0,5,1.5,5,4.2s-1.7,3.9-3.8,4.2l4.5,6.8h-2.2
			L816.8,369.2z M817.1,367.7c2.2,0,3.7-0.6,3.7-2.7s-1.8-2.6-3.6-2.6h-3.7v5.4L817.1,367.7L817.1,367.7z"/>
		<path fill="#929497" d="M1152.1,360.6h-6.1v-2h14.5v2h-6.1v16.7h-2.3V360.6z M1180.2,360.6L1180.2,360.6l-6.9,16.7h-1.4l-6.8-16.7
			h-0.1v16.7h-2.3v-18.7h3.9l6,15.3l6-15.3h3.9v18.7h-2.3L1180.2,360.6L1180.2,360.6z"/>
	</g>
</g>
</svg>
