<?xml version="1.0" encoding="utf-8"?>
<!-- Generator: Adobe Illustrator 18.1.1, SVG Export Plug-In . SVG Version: 6.00 Build 0)  -->
<svg version="1.1" id="Lager_1" xmlns="http://www.w3.org/2000/svg" xmlns:xlink="http://www.w3.org/1999/xlink" x="0px" y="0px"
	 viewBox="12.8 169.5 1173.5 287.4" enable-background="new 12.8 169.5 1173.5 287.4" xml:space="preserve">
<rect x="992.3" y="244.7" fill="#808285" width="9.9" height="128.8"/>
<path fill="#808285" d="M1090,358.2v-51.7c0,0-0.7-28.1-34.5-28.1c-33.8,0-34.7,26.4-34.7,26.4h10.7c0,0-0.5-18,23.8-18
	s24,20.9,24,20.9v12.5h-19.8c-28.3,0-42.3,11.5-42.3,27.8s8.5,27.8,29.2,27.8s32.4-15.6,32.4-15.6c0,6.4,3.1,13.3,3.1,13.3h11.5
	C1093.3,373.5,1090,365.6,1090,358.2z M1079.2,339.7c0,18.8-21.3,27-32,27s-19.6-5.4-19.6-17.9s14-20.7,30.9-20.7h20.6L1079.2,339.7
	L1079.2,339.7z"/>
<path fill="#808285" d="M1100.2,280.6h10.4l32.4,79.2l31.5-79.2h11.8c0,0-41.3,103.4-45.1,113.1c-3.8,9.7-13,18.7-24.2,18.7
	c-5.1,0-10.1-3.2-10.1-3.2l2.8-8.3c0,0,2.5,1.5,7.5,1.5s13.6-12.2,13.6-12.2l6.3-15.9L1100.2,280.6z"/>
<path fill="#808285" d="M940.2,278.4c-18.5,0-31,16.2-31.3,16.7v-14.4l0,0H899v128.5h9.9l0,0v-50.8c0.3,0.6,10,17.5,31.6,17.5
	c21.9,0,38.9-15,38.9-49.4C979.3,291.9,959,278.4,940.2,278.4z M938.6,367.1c-18,0-29.4-19.6-29.7-20.2v-40.2
	c0.3-0.5,13.5-19.4,31-19.4c15.9,0,29.2,17.2,29.2,39.8C969.2,349.6,956.9,367.1,938.6,367.1z"/>
<linearGradient id="SVGID_1_" gradientUnits="userSpaceOnUse" x1="227.3585" y1="284.8984" x2="191.0535" y2="356.1511" gradientTransform="matrix(1 0 0 -1 0 628)">
	<stop  offset="0" style="stop-color:#FCD08F"/>
	<stop  offset="1" style="stop-color:#F79673"/>
</linearGradient>
<path fill="url(#SVGID_1_)" d="M199.1,357.5c31.9-18.6,56.3-32.8,58.5-34.1c6.6-3.9,13.6-13.7,0-21.6c-4.4-2.5-28.1-16.3-58.6-34
	l-41.9,45L199.1,357.5z"/>
<linearGradient id="SVGID_2_" gradientUnits="userSpaceOnUse" x1="179.5052" y1="294.3069" x2="45.3077" y2="150.3977" gradientTransform="matrix(1 0 0 -1 0 628)">
	<stop  offset="0" style="stop-color:#E74047"/>
	<stop  offset="1" style="stop-color:#7F50A0"/>
</linearGradient>
<path fill="url(#SVGID_2_)" d="M157.1,312.8L23,456.8c3,0.4,6.7-0.4,10.9-2.9c8.7-5.1,101.8-59.4,165.2-96.3L157.1,312.8z"/>
<linearGradient id="SVGID_3_" gradientUnits="userSpaceOnUse" x1="179.1837" y1="336.526" x2="42.9207" y2="477.6304" gradientTransform="matrix(1 0 0 -1 0 628)">
	<stop  offset="0" style="stop-color:#E6FFAB"/>
	<stop  offset="1" style="stop-color:#47BEBC"/>
</linearGradient>
<path fill="url(#SVGID_3_)" d="M157.1,312.8l41.9-45c0,0-155.9-90.6-165.2-96c-3.6-2.1-7.5-2.8-11-2L157.1,312.8z"/>
<linearGradient id="SVGID_4_" gradientUnits="userSpaceOnUse" x1="84.95" y1="171.2" x2="84.95" y2="458.2" gradientTransform="matrix(1 0 0 -1 0 628)">
	<stop  offset="0" style="stop-color:#84E9DB"/>
	<stop  offset="1" style="stop-color:#197491"/>
</linearGradient>
<path fill="url(#SVGID_4_)" d="M157.1,312.8l-134.2-143c-5.5,1.3-10.1,6.4-10.1,16.7c0,16.7,0,239.1,0,253.1
	c0,9.7,3.6,16.5,10.2,17.2L157.1,312.8z"/>
<path fill="#808285" d="M433,253.8c0,0-14.5-15.7-50.7-15.7c-44.1,0-69.8,36.1-69.8,70.3c0,29.9,19.4,67.6,67.6,67.6
	c24.9,0,52.9-9.8,52.9-9.8s0-11.8,0-23.2c0-11.4,7.2-15.3,7.2-15.3h-38.6l-13.6,8c7.3-2,26.6-1.7,26.6-1.7v28.7
	c0,0-8.6,5.2-21.6,5.2c-37.6,0-62-35.1-62-67.2c0-39.2,26.3-55.7,49.1-55.7c22.8,0,35.7,18,35.7,18l-4.2,7.3l6.7-1.9L433,253.8z"/>
<path fill="#808285" d="M494.3,278.7c-25.9,0-46.9,20-46.9,49.2c0,21,15.9,46.3,44.1,46.3s47.9-20,47.9-48.2
	C539.4,297.9,520.2,278.7,494.3,278.7z M496.2,368.1c-21.3,0-31.4-35.1-31.4-52.8c0-17.8,11.3-30.4,24.3-30.4
	c18.6,0,31.4,23.4,31.4,50.6C520.6,344.8,517.6,368.1,496.2,368.1z"/>
<path fill="#808285" d="M595,278.8c-25.9,0-46.9,20-46.9,49.1c0,21,15.9,46.3,44,46.3c28.2,0,47.9-20,47.9-48.1
	C640,298,620.8,278.8,595,278.8z M596.9,368.1c-21.3,0-31.4-35.1-31.4-52.8c0-17.7,11.3-30.4,24.3-30.4c18.6,0,31.4,23.3,31.4,50.6
	C621.2,344.9,618.2,368.1,596.9,368.1z"/>
<path fill="#808285" d="M714.2,367.5c-9.2-6.8-11-10-11-13c0-2.9,0.1-5.3,6.7-12c6.6-6.6,12.6-13.6,12.6-26.1
	c0-18.6-11.8-27-11.8-27l11.2-0.4l11.2-7.1c0,0-21.3,0-43.8,0s-39.4,18.4-39.4,38.3c0,14,11.1,30.7,33.1,30.7c2.3,0,3.8-0.5,3.8-0.5
	s-1.3,3.1-1.3,7.2c0,6.7,5.4,12.7,5.4,12.7s-50.7,0.1-50.7,34.7c0,20.9,22.2,28.8,40.3,28.8c18.2,0,49.3-10.4,49.3-37.1
	C729.8,383.9,723.5,374.2,714.2,367.5z M690.2,344.9c-13.3,0-23.8-21.1-23.8-33.9s6-21.9,16.6-21.9s23.1,12.9,23.1,36.5
	C706,333.8,703.4,344.9,690.2,344.9z M689.2,425.1c-6.1,0-32.3-2.6-32.3-24.6s30.1-24.1,33.6-24.1s6.5,0.5,6.5,0.5
	c9.3,8.7,19.6,13.1,19.6,26.7C716.6,423.3,695.3,425.1,689.2,425.1z"/>
<path fill="#808285" d="M730.8,238.5l12.5-7.3h27.5c-6.4,3.6-8.8,6.5-9,23.5s-1,103.4-1,103.4c0,6.5,5.3,8.2,10,8.2
	c4.3,0,6.3,0.9,6.3,0.9l-5.8,4.3H738c0,0,4.8-4.6,4.8-9.1l1.7-123.9H730.8z"/>
<path fill="#808285" d="M852.3,303.6c0,0-4.6-25.2-32.7-25.2s-42.7,23.6-42.7,46.7s12.9,49.2,45,49.2c22.5,0,32.7-17.8,32.7-17.8
	s-10.8,6.8-22.7,6.8c-17.9,0-38.7-20.1-38.7-49.6c0-19.9,13-27.9,21.2-27.9c16.3,0,19.3,15.7,17.9,18.4
	c-1.4,2.8-38.5,18.8-38.5,18.8l14.8-0.8L852.3,303.6z"/>
</svg>
