<?xml version="1.0" encoding="utf-8"?>
<!-- Generator: Adobe Illustrator 18.1.1, SVG Export Plug-In . SVG Version: 6.00 Build 0)  -->
<svg version="1.1" id="Lager_1" xmlns="http://www.w3.org/2000/svg" xmlns:xlink="http://www.w3.org/1999/xlink" x="0px" y="0px"
	 viewBox="9.6 141.1 1177.5 341.2" enable-background="new 9.6 141.1 1177.5 341.2" xml:space="preserve">
<g>
	<g>
		<path d="M303.5,390.5c-8.2,17.6-11.8,25.9-22.4,41.2c-14.1,22.4-34.1,49.4-60,49.4c-22.4,0-28.2-14.1-58.8-14.1
			s-36.5,14.1-58.8,14.1c-24.7,0-44.7-24.7-58.8-47.1c-40-61.2-44.7-132.9-20-170.6c18.8-27.1,45.9-42.4,72.9-42.4
			s43.5,14.1,65.9,14.1c21.2,0,34.1-14.1,64.7-14.1c23.5,0,48.2,12.9,65.9,34.1C235.3,286.9,244.7,369.3,303.5,390.5L303.5,390.5z"
			/>
		<path d="M204.7,196.4c11.8-14.1,20-34.1,16.5-55.3c-18.8,1.2-40,12.9-51.8,28.2c-11.8,14.1-21.2,34.1-16.5,54.1
			C171.8,223.4,191.8,211.6,204.7,196.4L204.7,196.4z"/>
	</g>
	<g>
		<path d="M404.7,294c0,12.9-9.4,22.4-24.7,22.4c-14.1,0-23.5-10.6-23.5-22.4c0-12.9,9.4-22.4,23.5-22.4
			C395.3,270.5,404.7,281.1,404.7,294z M358.8,478.7V334h44.7v144.7H358.8z"/>
		<path d="M480,317.5h-52.9v-37.6H580v37.6h-54.1v161.2h-44.7V317.5H480z"/>
		<path d="M722.4,431.6c0,18.8,1.2,34.1,1.2,45.9h-38.8l-2.4-20h-1.2c-5.9,9.4-18.8,23.5-44.7,23.5c-29.4,0-50.6-18.8-50.6-63.5
			v-84.7h44.7v77.6c0,21.2,7.1,34.1,22.4,34.1c12.9,0,20-8.2,22.4-15.3c1.2-2.4,1.2-5.9,1.2-9.4V334h44.7v97.6H722.4z"/>
		<path d="M757.6,379.9c0-17.6-1.2-32.9-1.2-45.9h38.8l2.4,20h1.2c5.9-9.4,21.2-23.5,44.7-23.5c29.4,0,51.8,20,51.8,62.4v85.9h-44.7
			v-80c0-18.8-7.1-31.8-22.4-31.8c-12.9,0-20,8.2-22.4,16.5c-1.2,3.5-2.4,7.1-2.4,11.8v83.5h-44.7v-98.8H757.6z"/>
		<path d="M965.9,421.1c1.2,18.8,20,27.1,41.2,27.1c15.3,0,28.2-2.4,40-5.9l5.9,30.6c-15.3,5.9-32.9,9.4-51.8,9.4
			c-49.4,0-77.6-28.2-77.6-74.1c0-36.5,22.4-77.6,72.9-77.6c47.1,0,64.7,36.5,64.7,71.8c0,8.2-1.2,14.1-1.2,17.6h-94.1V421.1z
			 M1018.8,389.3c0-10.6-4.7-29.4-25.9-29.4c-18.8,0-27.1,17.6-28.2,29.4H1018.8z"/>
		<path d="M1087.1,438.7c8.2,4.7,25.9,10.6,38.8,10.6c14.1,0,18.8-4.7,18.8-11.8s-4.7-10.6-21.2-16.5c-29.4-9.4-41.2-25.9-41.2-42.4
			c0-27.1,23.5-47.1,58.8-47.1c16.5,0,31.8,3.5,41.2,8.2l-8.2,30.6c-7.1-3.5-18.8-8.2-31.8-8.2c-10.6,0-17.6,4.7-17.6,11.8
			c0,7.1,5.9,10.6,23.5,16.5c27.1,9.4,38.8,23.5,38.8,44.7c0,27.1-21.2,47.1-62.4,47.1c-18.8,0-35.3-4.7-47.1-10.6L1087.1,438.7z"/>
	</g>
</g>
</svg>
