<?xml version="1.0" encoding="utf-8"?>
<!-- Generator: Adobe Illustrator 18.1.1, SVG Export Plug-In . SVG Version: 6.00 Build 0)  -->
<svg version="1.1" id="Lager_1" xmlns="http://www.w3.org/2000/svg" xmlns:xlink="http://www.w3.org/1999/xlink" x="0px" y="0px"
	 viewBox="14 226.6 1173.4 175.2" enable-background="new 14 226.6 1173.4 175.2" xml:space="preserve">
<g>
	<path fill="#020202" d="M14,378.2c1.8,0.6,3.7,0.8,6.1,0.8c5.7,0,10.8-1.4,10.8-9V265.1h27.8v106.2c0,20.7-7.6,30.5-35.6,30.5
		c-2.9,0-6.1-0.4-9-0.8v-22.8H14z M58.6,249.5H30.8v-22.9h27.8V249.5z"/>
	<path fill="#020202" d="M175.6,366.3h-26.4v-14.1h-0.6c-7,11.3-19.2,16.8-30.9,16.8c-29.5,0-37-16.6-37-41.7v-62.2h27.8v57.1
		c0,16.6,4.9,24.8,17.8,24.8c15.1,0,21.5-8.4,21.5-29v-53h27.8V366.3z"/>
	<path fill="#020202" d="M194.8,265.1h26.4v14.1h0.6c7-11.3,19.2-16.8,30.9-16.8c29.5,0,37,16.6,37,41.7v62.2h-27.8v-57.1
		c0-16.6-4.9-24.8-17.8-24.8c-15.1,0-21.5,8.4-21.5,29v53h-27.8L194.8,265.1L194.8,265.1z"/>
	<path fill="#020202" d="M358,262.4c31.9,0,52.4,21.1,52.4,53.4c0,32.1-20.5,53.2-52.4,53.2c-31.7,0-52.2-21.1-52.2-53.2
		C305.8,283.5,326.3,262.4,358,262.4z M358,348.1c19,0,24.7-16.2,24.7-32.3c0-16.2-5.7-32.5-24.7-32.5c-18.8,0-24.5,16.2-24.5,32.5
		C333.5,331.9,339.2,348.1,358,348.1z"/>
	<path fill="#020202" d="M504.6,344.8h-0.4c-8.2,15.8-20.5,23.9-38.5,23.9c-30.3,0-43.4-24.7-43.4-52.4c0-29.7,14.5-52.8,44.8-52.8
		c16.4,0,31.9,9,37.2,24.8h0.4v-61.6h7.4v139.7h-7.4v-21.6H504.6z M504.4,316.2c0-23.5-11.5-46.4-37.4-46.4
		c-26.6,0-37.4,22.1-37.4,46.4c0,23.7,11.7,46,37.6,46C492.6,362.2,504.4,339.3,504.4,316.2z"/>
	<path fill="#020202" d="M575.2,263.4c29.5,0,46.2,24.1,46.2,52.6s-16.6,52.6-46.2,52.6S529,344.6,529,316S545.7,263.4,575.2,263.4z
		 M575.2,362.2c25.2,0,38.7-22.1,38.7-46.2s-13.5-46.2-38.7-46.2s-38.7,22.1-38.7,46.2S550,362.2,575.2,362.2z"/>
	<path fill="#020202" d="M661.9,357.7h0.4l27.4-92h10l27.6,92h0.4l28.2-92h8.2l-32.3,100.6h-9.2L695,275.1h-0.4l-27.8,91.2h-9.4
		l-31.9-100.6h8L661.9,357.7z"/>
	<path fill="#020202" d="M772.7,265.7h7.4v21.5h0.4c5.1-15.1,20.3-23.9,36-23.9c35.4,0,35.8,28.4,35.8,40.7v62.2h-7.4v-63.6
		c0-10.4-1.2-32.9-28.6-32.9c-22.5,0-36.2,17.4-36.2,42.1v54.4h-7.4V265.7z"/>
	<path fill="#020202" d="M881.5,226.6v139.7H874V226.6H881.5z"/>
	<path fill="#020202" d="M944.7,263.4c29.5,0,46.2,24.1,46.2,52.6s-16.6,52.6-46.2,52.6c-29.5,0-46.2-24.1-46.2-52.6
		S915.1,263.4,944.7,263.4z M944.7,362.2c25.2,0,38.7-22.1,38.7-46.2s-13.5-46.2-38.7-46.2S906,291.9,906,316
		C905.9,340.1,919.4,362.2,944.7,362.2z"/>
	<path fill="#020202" d="M1080.5,347.7c0,5.9,0,12.1,6.7,12.1c1.4,0,3.1-0.2,5.5-0.6v6.3c-2.2,0.4-4.1,0.8-6.1,0.8
		c-11.7,0-13.5-6.5-13.5-14.7v-5.3h-0.4c-4.7,11.9-18.2,22.3-37.4,22.3c-19,0-33.6-7.2-33.6-28.4c0-23.5,20.3-28.4,37-29.7
		c33.3-2.3,34.6-4.5,34.6-20.9c0-4.5-5.1-19.8-28-19.8c-18,0-29.9,9.4-30.9,26.8h-7.4c1-22.1,14.7-33.3,38.3-33.3
		c17.6,0,35.2,5.5,35.2,26.2L1080.5,347.7L1080.5,347.7z M1073,309.2c-5.9,6.7-21.9,5.9-36.4,7.8c-17.6,2-27.6,8.2-27.6,23.3
		c0,12.1,8.8,21.9,26.4,21.9c33.8,0,37.6-29,37.6-34.2V309.2z"/>
	<path fill="#020202" d="M1179.9,344.8h-0.4c-8.2,15.8-20.5,23.9-38.5,23.9c-30.3,0-43.4-24.7-43.4-52.4c0-29.7,14.5-52.8,44.8-52.8
		c16.4,0,31.9,9,37.2,24.8h0.4v-61.6h7.4v139.7h-7.4L1179.9,344.8L1179.9,344.8z M1179.7,316.2c0-23.5-11.5-46.4-37.4-46.4
		c-26.6,0-37.4,22.1-37.4,46.4c0,23.7,11.7,46,37.6,46C1167.9,362.2,1179.7,339.3,1179.7,316.2z"/>
</g>
</svg>
