<?xml version="1.0" encoding="utf-8"?>
<!-- Generator: Adobe Illustrator 18.1.1, SVG Export Plug-In . SVG Version: 6.00 Build 0)  -->
<svg version="1.1" id="Lager_1" xmlns="http://www.w3.org/2000/svg" xmlns:xlink="http://www.w3.org/1999/xlink" x="0px" y="0px"
	 viewBox="12.5 175.3 1176.4 234.2" enable-background="new 12.5 175.3 1176.4 234.2" xml:space="preserve">
<g>
	<polygon fill="#FF3399" points="380.9,301.5 335.6,207.5 299.3,207.5 299.3,382.4 330.9,382.4 330.9,267.7 367,339.9 392.9,339.9 
		431,264.7 431,382.4 462.6,382.4 462.6,207.5 426.2,207.5 	"/>
	<path fill="#FF3399" d="M129.6,175.3c-64.7,0-117.1,52.4-117.1,117.1s52.4,117.1,117.1,117.1s117.1-52.4,117.1-117.1
		C246.7,227.7,194.3,175.3,129.6,175.3z M155.4,233.8c0-2.5,2-4.5,4.5-4.5h14.3c2.5,0,4.5,2,4.5,4.5v47.1c0,2.5-2,4.5-4.5,4.5h-14.3
		c-2.5,0-4.5-2-4.5-4.5V233.8z M80.4,233.8c0-2.5,2-4.5,4.5-4.5h14.3c2.5,0,4.5,2,4.5,4.5v47.1c0,2.5-2,4.5-4.5,4.5H85
		c-2.5,0-4.5-2-4.5-4.5L80.4,233.8L80.4,233.8z M206.9,292.5c0,42.6-34.7,77.1-77.3,77.1s-77.2-34.5-77.2-77.1v-30.6
		c0-2.5,2-4.5,4.5-4.5h7.3c2.5,0,4.5,2,4.5,4.5v30.6c0,33.5,27.3,60.8,60.8,60.8s61-27.3,61-60.8v-30.6c0-2.5,2-4.5,4.5-4.5h7.3
		c2.5,0,4.5,2,4.5,4.5L206.9,292.5L206.9,292.5z"/>
	<path fill="#FF3399" d="M1047.9,205.5c-3.3,0-6,1.1-8.1,3.4c-2.1,2.2-3.1,5.2-3.1,8.8s1,6.6,3.1,8.8s4.8,3.4,8.1,3.4
		c3.3,0,6.1-1.1,8.2-3.2c2.2-2.2,3.2-5.1,3.2-9c0-3.6-1.1-6.6-3.2-8.8C1054,206.6,1051.2,205.5,1047.9,205.5z"/>
	<path fill="#FF3399" d="M872.6,266.3c-8.1-6.9-19.4-10.3-34-10.3c-11.3,0-20.5,1.3-27.6,3.9s-12.3,4.8-15.4,6.6l5,11.4
		c3.3-1.8,7.8-3.8,13.6-5.8c5.7-2.1,12.6-3.1,20.8-3.1c11.5,0,20.2,2.3,26.4,7c6.1,4.6,9.2,12.4,9.2,23.1V310
		c-1.3-0.2-3.2-0.5-5.7-0.9s-5.3-0.8-8.6-1.2c-3.2-0.4-6.8-0.7-10.6-1c-3.8-0.2-7.6-0.4-11.2-0.4c-15.6,0-27.2,3.8-35,11.3
		c-7.7,7.6-11.6,17.5-11.6,29.7c0,7,1.2,12.9,3.6,17.7c2.4,4.8,5.5,8.7,9.2,11.7s7.9,5.1,12.5,6.5c4.6,1.3,9,2,13.3,2
		c3.8,0,7.8-0.3,12.1-1c4.2-0.7,8.3-1.8,12.3-3.4s7.7-3.7,11.1-6.3c3.4-2.7,6.3-6,8.8-10l0.5,17.7h13.4v-84.6
		C884.6,283.7,880.6,273.2,872.6,266.3z M870.4,337.4c0,4.5-1,8.8-3.1,13.1c-2.1,4.2-4.9,8-8.5,11.3s-7.7,6-12.3,8s-9.5,3-14.4,3
		c-8.8,0-15.9-2-21.4-6s-8.2-10.4-8.2-19.2c0-8.6,2.4-15.5,7.3-20.7c4.9-5.1,13.5-7.7,25.8-7.7c3.5,0,7.1,0.1,10.7,0.4
		c3.6,0.3,7.1,0.5,10.2,0.9c3.1,0.3,5.9,0.7,8.3,1.1c2.4,0.4,4.3,0.8,5.6,1.1L870.4,337.4L870.4,337.4z"/>
	<path fill="#FF3399" d="M1185.4,294.4c-2.4-7.9-6-14.7-10.7-20.4c-4.7-5.7-10.6-10.2-17.7-13.4c-7-3.2-15.3-4.9-24.8-4.9
		c-9.3,0-17.5,1.6-24.5,4.9c-7.1,3.2-12.9,7.7-17.7,13.4c-4.7,5.7-8.3,12.5-10.8,20.4s-3.7,16.6-3.7,26c0,9.5,1.2,18.2,3.6,26.1
		c2.4,8,6,14.8,10.7,20.5s10.7,10.2,17.8,13.3c7.1,3.1,15.3,4.7,24.6,4.7c9.1,0,17.3-1.6,24.4-4.7c7.1-3.2,13.1-7.6,17.8-13.3
		c4.7-5.7,8.3-12.6,10.8-20.5c2.5-8,3.7-16.7,3.7-26.1C1189,311,1187.8,302.3,1185.4,294.4z M1163.9,357.9
		c-6.8,9.2-17.3,13.8-31.6,13.8c-14.1,0-24.6-4.6-31.4-13.8c-6.8-9.2-10.2-21.7-10.2-37.5c0-15.4,3.4-27.8,10.3-37.2
		c6.9-9.4,17.3-14.1,31.2-14.1c14.1,0,24.6,4.7,31.5,14.1s10.3,21.8,10.3,37.2C1174.1,336.2,1170.7,348.7,1163.9,357.9z"/>
	<rect x="484" y="257" fill="#FF3399" width="33.4" height="125.4"/>
	<path fill="#FF3399" d="M999.1,278.1c-4.2-7.3-9.6-12.9-16.4-16.7c-6.8-3.8-15.1-5.7-24.9-5.7c-9.3,0-17.3,1.8-23.9,5.5
		c-6.6,3.7-12.1,8.6-16.3,14.7s-7.4,13.1-9.5,20.9s-3.1,15.8-3.1,23.9c0,12.1,1.4,22.2,4.4,30.4c2.9,8.1,6.8,14.6,11.7,19.5
		s10.4,8.4,16.7,10.4c6.2,2.1,12.6,3.1,19,3.1c10,0,18.4-1.6,25.4-4.7c7-3.2,12.9-7.1,17.7-11.9l0.2,14.9h13.7V195.8h-14.7
		L999.1,278.1L999.1,278.1z M999.1,350.3c-1.5,2.3-3.5,4.7-5.9,7.1s-5.3,4.6-8.7,6.6s-7.3,3.6-11.6,4.8c-4.3,1.3-9,1.9-14.2,1.9
		c-11.6,0-20.9-4-28-12.1c-7.1-8-10.6-20.7-10.6-37.9c0-7.3,0.7-14.1,2.2-20.4s3.8-11.7,6.8-16.3c3.1-4.6,7-8.2,11.7-10.8
		c4.7-2.7,10.3-4,16.8-4c13.3,0,23.5,4.7,30.6,14.1s10.7,22.5,10.7,39.4v27.6H999.1z"/>
	<path fill="#FF3399" d="M749.5,300.9c4.1-2.9,7.8-6.3,10.9-10.3c3.2-4,5.6-8.6,7.3-13.9s2.6-11.4,2.6-18.2c0-6.1-1-12.2-2.9-18.3
		s-5-11.5-9.3-16.4s-10-8.8-17.1-11.8s-15.8-4.5-26.3-4.5h-46v175h15.2v-71.9h35.6l42.8,71.9h18.2l-44.3-74.7
		C741,306.1,745.4,303.8,749.5,300.9z M713.9,297.1H684v-75.7h28.9c14.8,0,25.4,3.4,32,10.2c6.5,6.8,9.8,16.1,9.8,27.7
		c0,11.5-3.3,20.6-9.8,27.5C738.3,293.6,728,297.1,713.9,297.1z"/>
	<path fill="#FF3399" d="M500.6,198.5c-5.8,0-10.4,2-13.8,5.8c-3.4,3.9-5.1,8.7-5.1,14.3s1.7,10.4,5.1,14.3c3.4,3.9,8,5.9,13.8,5.9
		s10.4-1.9,13.8-5.7s5.1-8.6,5.1-14.4c0-5.8-1.7-10.6-5.1-14.4C511.1,200.4,506.5,198.5,500.6,198.5z"/>
	<polygon fill="#FF3399" points="651.7,257 616.4,257 595.5,294.1 572.6,257 534,257 574.6,317.5 532,382.4 567.3,382.4 592,341.6 
		617.6,382.4 656.7,382.4 613.1,317.7 	"/>
	<rect x="1040.7" y="259" fill="#FF3399" width="14.7" height="123.4"/>
</g>
</svg>
