<?xml version="1.0" encoding="utf-8"?>
<!-- Generator: Adobe Illustrator 18.1.1, SVG Export Plug-In . SVG Version: 6.00 Build 0)  -->
<svg version="1.1" id="Lager_1" xmlns="http://www.w3.org/2000/svg" xmlns:xlink="http://www.w3.org/1999/xlink" x="0px" y="0px"
	 viewBox="20.8 78.4 1158.4 444.5" enable-background="new 20.8 78.4 1158.4 444.5" xml:space="preserve">
<g>
	<g>
		<path fill="#0066CC" d="M585.8,84.8c0-5.1-1.8-6.4-6.6-6.3c-26.9,0.2-53.7,0.3-80.6-0.1c-6.3-0.1-7.5,2-7.5,7.9
			c0.2,43.6,0.1,87.1,0.1,130.7c0,2.2,0,4.5,0,7.1c-1.5-0.6-1.9-0.6-2.2-0.8c-1.4-1.4-2.8-2.8-4.1-4.3
			c-32.2-35.8-72.8-49.1-119.4-42.1c-55.4,8.3-93.8,39.8-115.7,91.2c-13,30.5-16.5,62.6-14.4,95.6c1.8,28.2,8.2,54.9,21.7,79.7
			c27.7,50.7,79.7,83,145.5,76.8c31.2-2.9,57-17.4,77.7-41c3.2-3.7,6.4-7.3,10.5-12.2c0.2,3.4,0.4,5.3,0.4,7.1
			c0,11.7,0.2,23.5-0.1,35.2c-0.1,5.1,1.7,6.4,6.5,6.4c27.3-0.2,54.5-0.2,81.8,0c5.1,0,6.3-1.8,6.3-6.6
			C585.6,367.7,585.6,226.3,585.8,84.8z M490.2,365.7c-16.4,33.2-43.4,52.2-80.2,57.6c-16,2.4-31.3,0.1-46.1-5.8
			c-36.2-14.4-50.6-49.9-33.3-84.9c18.6-37.7,50-56.6,91.7-58.8c12.3-0.3,23.9,2.3,35,6.7C493.2,294.6,507.4,330.7,490.2,365.7z"/>
		<path fill="#FFFFFF" d="M457.4,280.5c-11.2-4.4-22.7-6.9-35-6.7c-41.7,2.2-73.1,21.1-91.7,58.8c-17.3,35-3,70.5,33.3,84.9
			c14.8,5.9,30.1,8.2,46.1,5.8c36.8-5.4,63.8-24.4,80.2-57.6C507.4,330.7,493.2,294.6,457.4,280.5z"/>
	</g>
	<path fill="#0066CC" d="M989.9,281.4c0.1-1,0.4-2.1,0.4-3.3c0-29.2-0.2-58.5,0.2-87.7c0.1-6.4-2.4-8.5-8.1-9.7
		c-23.7-4.9-47.5-6.1-71.5-2.6c-42.6,6.3-79.3,24.3-108.1,56.5c-36.6,40.8-50,88.9-42,143c6,40.6,24.7,74.6,55.6,101.2
		c42.1,36.3,91.7,48.7,146.4,42.5c37-4.2,70-17.9,97.8-42.7c43.7-39,62.8-88.1,57.7-146.5c-0.4-4.4,0.5-6.7,5.2-8.2
		c18.7-5.9,34.3-16.6,45.9-32.5c5.5-7.6,10.1-15.7,9.8-25.7c-0.2-7.4-3.6-10.2-11-11.2c-13.3-1.7-26.9-2.9-39.7-6.7
		c-33.9-9.9-64.1-27.6-93.1-47.3c-2.2-1.5-4.7-2.7-8.1-4.6c0,3.3,0,5.4,0,7.5c0,43.8,0,87.5,0,131.3c0,3.6,0,7.2-0.8,10.7
		c-5.6,23.5-18.1,42.9-37.3,57.3c-32.2,24.2-67.3,29.4-104.2,11.8c-24.3-11.6-35.9-35.1-31.9-61.5c3.4-22.3,15.4-39.9,32.3-54
		c21.9-18.3,47.2-27.5,76.1-23.8C970.8,276.6,980,279.3,989.9,281.4z M116.7,247.9c-0.7-0.2-1.5-0.4-2.2-0.6c0-2.3,0-4.6,0-6.9
		c0-16.7-0.2-33.4,0.1-50.1c0.1-5.3-1.3-7.3-7-7.2c-26.6,0.3-53.3,0.3-80,0c-5.2,0-6.8,1.5-6.8,6.7c0.1,106.6,0.2,213.2,0,319.8
		c0,5.8,2,6.9,7.2,6.9c26.3-0.2,52.5-0.3,78.8,0c6,0.1,7.8-1.5,7.8-7.7c-0.3-37.2-0.4-74.4,0-111.6c0.2-13.6,1.3-27.4,3.4-40.8
		c7.5-46.6,37.6-75.5,83.9-80.9c4.7-0.5,6.4-2.4,7.7-6.4c7.5-24,18.8-46,34.9-65.3c6.1-7.2,12.7-14,19.5-21.5
		c-3.4-1-6.3-2.5-9.4-2.7c-15.6-1-31.2-2.3-46.9-2.4c-16-0.1-30.9,4.6-44.7,12.8c-20.3,12-33.2,30.4-43.2,51.2
		C118.8,243.5,117.7,245.7,116.7,247.9z M628.5,349.2c0,53.5,0.1,107-0.1,160.5c0,5.3,1.5,6.8,6.8,6.7c27.1-0.2,54.1-0.2,81.2,0
		c5.3,0,6.7-1.5,6.7-6.8c-0.1-107-0.1-214.1,0-321.1c0-5.3-1.5-6.8-6.8-6.7c-26.9,0.2-53.7,0.3-80.6,0c-5.8-0.1-7.4,1.6-7.4,7.4
		C628.6,242.6,628.5,295.9,628.5,349.2z M674,151.1c14.3,0,28.6-0.1,43,0.1c4.2,0.1,6.1-0.9,6.1-5.6c-0.2-20.3-0.2-40.6,0-60.8
		c0-4.2-1.5-5.5-5.6-5.4c-28.6,0.1-57.3,0.1-85.9,0c-4.2,0-5.5,1.5-5.5,5.6c0.1,20.3,0.2,40.6,0,60.8c0,4.2,1.5,5.5,5.6,5.5
		C645.8,151,659.9,151.1,674,151.1z M1134.2,506.4c-1.2-1.8-1.8-2.3-2-3c-1.9-5.2-3.3-10.7-5.7-15.6c-0.9-1.8-4-3.1-6.2-3.4
		c-0.9-0.1-3.2,3-3.2,4.7c-0.4,7.1-0.3,14.3,0,21.4c0.1,1.6,1.9,3.1,3,4.7c1-1.6,2.7-3.1,2.9-4.8c0.4-4.9,0.1-9.9,0.1-14.9
		c0.6-0.1,1.2-0.1,1.8-0.2c1.8,5.4,3.5,10.7,5.5,16c0.6,1.5,2.1,2.5,3.2,3.8c1.3-1.3,3.1-2.4,3.7-3.9c2.1-5.4,3.7-11,5.6-16.6
		c0.6,0.1,1.1,0.1,1.7,0.2c0,5.4-0.2,10.8,0.1,16.2c0.1,1.4,1.9,2.8,2.9,4.2c1-1.4,2.9-2.7,2.9-4.1c0.3-7.1,0.2-14.3,0.1-21.4
		c0-2.5,0.6-5.4-3.4-5.6c-3.3-0.2-5.6,0.5-6.6,4.2C1138.7,494,1136.5,499.5,1134.2,506.4z M1101.4,489.4c2.3-0.2,3.9,0,5.4-0.5
		s2.7-1.6,4-2.4c-1.4-0.8-2.7-2.2-4.1-2.3c-5.9-0.3-11.9-0.3-17.9,0c-1.4,0.1-2.8,1.4-4.2,2.2c1.5,0.9,2.8,2.1,4.4,2.5
		c1.8,0.5,3.8,0.3,6.2,0.5c0,7-0.2,13.6,0.1,20.1c0.1,2,2,3.8,3.1,5.7c0.9-1.8,2.6-3.6,2.7-5.5
		C1101.6,503,1101.4,496.3,1101.4,489.4z"/>
	<path fill="#0066CC" d="M989.9,281.4c-9.9-2.2-19.1-4.9-28.4-6.1c-28.9-3.8-54.2,5.5-76.1,23.8c-16.9,14.1-28.9,31.7-32.3,54
		c-4,26.4,7.6,49.9,31.9,61.5c36.9,17.6,72,12.3,104.2-11.8c19.2-14.4,31.7-33.8,37.3-57.3c0.8-3.4,0.8-7.1,0.8-10.7
		c0-43.8,0-87.5,0-131.3c0-2.1,0-4.2,0-7.5c3.5,2,5.9,3.1,8.1,4.6c29.1,19.6,59.2,37.4,93.1,47.3c12.8,3.7,26.4,4.9,39.7,6.7
		c7.4,0.9,10.7,3.7,11,11.2c0.3,9.9-4.3,18.1-9.8,25.7c-11.6,16-27.2,26.6-45.9,32.5c-4.7,1.5-5.6,3.8-5.2,8.2
		c5.1,58.4-14,107.6-57.7,146.5c-27.8,24.7-60.8,38.5-97.8,42.7c-54.7,6.2-104.3-6.2-146.4-42.5c-30.9-26.7-49.6-60.7-55.6-101.2
		c-8-54.1,5.4-102.2,42-143c28.8-32.2,65.5-50.2,108.1-56.5c24.1-3.6,47.8-2.4,71.5,2.6c5.7,1.2,8.1,3.3,8.1,9.7
		c-0.4,29.2-0.2,58.5-0.2,87.7C990.3,279.3,990.1,280.5,989.9,281.4z"/>
	<path fill="#0066CC" d="M116.7,247.9c1.1-2.2,2.2-4.4,3.2-6.6c10.1-20.7,22.9-39.1,43.2-51.2c13.8-8.2,28.7-13,44.7-12.8
		c15.6,0.1,31.3,1.4,46.9,2.4c3,0.2,6,1.7,9.4,2.7c-6.8,7.5-13.5,14.2-19.5,21.5c-16.2,19.3-27.5,41.3-34.9,65.3
		c-1.3,4-3,5.9-7.7,6.4c-46.3,5.4-76.5,34.3-83.9,80.9c-2.2,13.5-3.2,27.2-3.4,40.8c-0.5,37.2-0.3,74.4,0,111.6
		c0,6.1-1.7,7.7-7.8,7.7c-26.3-0.3-52.5-0.3-78.8,0c-5.2,0-7.3-1.1-7.2-6.9c0.2-106.6,0.2-213.2,0-319.8c0-5.3,1.5-6.8,6.8-6.7
		c26.7,0.2,53.3,0.3,80,0c5.7-0.1,7.1,1.9,7,7.2c-0.3,16.7-0.1,33.4-0.1,50.1c0,2.3,0,4.6,0,6.9
		C115.2,247.5,115.9,247.7,116.7,247.9z"/>
	<path fill="#0066CC" d="M628.5,349.2c0-53.3,0.1-106.6-0.1-159.9c0-5.7,1.6-7.4,7.4-7.4c26.9,0.3,53.7,0.3,80.6,0
		c5.2,0,6.8,1.5,6.8,6.7c-0.1,107-0.1,214.1,0,321.1c0,5.2-1.5,6.8-6.7,6.8c-27.1-0.2-54.1-0.2-81.2,0c-5.2,0-6.8-1.5-6.8-6.7
		C628.6,456.3,628.5,402.7,628.5,349.2z"/>
	<path fill="#0066CC" d="M674,151.1c-14.1,0-28.2-0.1-42.4,0.1c-4.1,0.1-5.6-1.2-5.6-5.5c0.2-20.3,0.2-40.6,0-60.8
		c0-4.1,1.2-5.6,5.5-5.6c28.6,0.1,57.3,0.1,85.9,0c4.1,0,5.6,1.2,5.6,5.4c-0.2,20.3-0.2,40.6,0,60.8c0,4.7-1.9,5.6-6.1,5.6
		C702.6,151,688.3,151.1,674,151.1z"/>
	<path fill="#0066CC" d="M1134.2,506.4c2.4-7,4.5-12.5,6.1-18.1c1-3.8,3.3-4.4,6.6-4.2c4,0.2,3.4,3.1,3.4,5.6
		c0,7.1,0.2,14.3-0.1,21.4c-0.1,1.4-1.9,2.7-2.9,4.1c-1-1.4-2.8-2.7-2.9-4.2c-0.3-5.4-0.1-10.8-0.1-16.2c-0.6-0.1-1.1-0.1-1.7-0.2
		c-1.8,5.5-3.5,11.1-5.6,16.6c-0.6,1.5-2.4,2.6-3.7,3.9c-1.1-1.3-2.6-2.3-3.2-3.8c-2-5.3-3.7-10.7-5.5-16c-0.6,0.1-1.2,0.1-1.8,0.2
		c0,5,0.2,9.9-0.1,14.9c-0.1,1.7-1.9,3.2-2.9,4.8c-1-1.6-2.9-3.1-3-4.7c-0.3-7.1-0.4-14.3,0-21.4c0.1-1.7,2.4-4.8,3.2-4.7
		c2.3,0.3,5.4,1.6,6.2,3.4c2.4,5,3.8,10.4,5.7,15.6C1132.4,504.1,1132.9,504.7,1134.2,506.4z"/>
	<path fill="#0066CC" d="M1101.4,489.4c0,6.9,0.2,13.6-0.1,20.3c-0.1,1.9-1.8,3.7-2.7,5.5c-1.1-1.9-3-3.8-3.1-5.7
		c-0.4-6.5-0.1-13-0.1-20.1c-2.4-0.2-4.4,0-6.2-0.5c-1.6-0.5-3-1.7-4.4-2.5c1.4-0.8,2.8-2.1,4.2-2.2c5.9-0.2,11.9-0.2,17.9,0
		c1.4,0.1,2.7,1.5,4.1,2.3c-1.3,0.8-2.6,1.9-4,2.4C1105.3,489.3,1103.7,489.2,1101.4,489.4z"/>
</g>
</svg>
