<?xml version="1.0" encoding="utf-8"?>
<!-- Generator: Adobe Illustrator 18.1.1, SVG Export Plug-In . SVG Version: 6.00 Build 0)  -->
<svg version="1.1" id="Lager_1" xmlns="http://www.w3.org/2000/svg" xmlns:xlink="http://www.w3.org/1999/xlink" x="0px" y="0px"
	 viewBox="7.1 191.9 1185.8 230.3" enable-background="new 7.1 191.9 1185.8 230.3" xml:space="preserve">
<g>
	<path fill="#FF9B00" d="M91.4,280c0-11.8,8.4-16.7,18.6-10.7l50.7,29.2c10.2,5.9,10.2,15.6,0,21.5L110,349.2
		c-10.2,5.9-18.6,1.1-18.6-10.7V280z"/>
	<path fill="#003255" d="M83.6,215.7c-88.1,33.4-98.2,94.9-40,155.9c37.8,39.7,129,98.4,173.2-47.9c1.9-12.2-7.7-9.4-15.4-1.5
		c-7.3,7.1-11.5,11.1-18.7,16.1c-6.4,5.5-14.3,11.4-24,17.8C71.8,413.6,51.6,336.7,54.2,301c3.9-53,35.2-72.8,88.1-45.9
		c2.9,1.5,5.7,2.9,8.4,4.3c4.1,1.6,8.3,3.6,12.7,6.1c17.8,10,29.2,18.5,38.4,26.9c7.2,6.3,18.9,6.4,20.9-7.8
		C238,178.2,189.2,175.8,83.6,215.7"/>
	<path fill="#003255" d="M378.5,308.5c1.3-1.1,2.6-2.2,3.9-3.5c8.9-8.9,13.3-19.1,13.3-30.7c0-11.7-4.4-22-13.3-30.8
		c-8.9-8.9-19.2-13.3-30.9-13.3H282v145.5h19.5v-56.9H352c6.7,0,12.4,2.4,17.3,7.3c4.9,4.8,7.3,10.6,7.3,17.2v32.4h19.7v-32.4
		c0-11.7-4.4-22-13.3-30.8 M301.4,249.7h50.1c6.6,0,12.4,2.4,17.3,7.3c4.9,4.9,7.3,10.6,7.3,17.2s-2.4,12.4-7.3,17.2
		c-4.9,4.8-10.6,7.3-17.3,7.3h-50.1V249.7z"/>
	<path fill="#003255" d="M743.7,325.2c0,14.2-4.9,26.4-14.9,36.7c-9.9,10.3-21.9,15.4-35.9,15.4c-13.2,0-24.6-4.6-34.3-13.7v55.2
		h-19.7v-93.6c0-14.4,5.1-26.7,15.3-36.9c10.3-10.3,22.6-15.4,37-15.4c14.3,0,26.6,5.1,36.9,15.4
		C738.5,298.6,743.7,310.9,743.7,325.2 M724,325.2c0-8.9-3.2-16.5-9.7-23c-6.5-6.4-14.1-9.7-23-9.7c-9,0-16.6,3.2-23.1,9.7
		c-6.4,6.4-9.6,14-9.6,23s3.2,16.7,9.6,23.1c6.4,6.4,14.1,9.6,23.1,9.6s16.6-3.2,23-9.6C720.8,341.8,724,334.1,724,325.2"/>
	<path fill="#003255" d="M943.7,325.2c0,14.3-5.1,26.6-15.4,36.9c-10.3,10.1-22.6,15.2-37,15.2s-26.8-5.1-37-15.2
		c-10.2-10.2-15.3-22.5-15.3-36.9s5.1-26.7,15.3-36.9c10.3-10.3,22.6-15.4,37-15.4s26.7,5.1,37,15.4S943.7,310.9,943.7,325.2
		 M924,325.2c0-8.9-3.2-16.5-9.7-23c-6.5-6.4-14.2-9.7-23.1-9.7c-9,0-16.7,3.2-23.1,9.7c-6.4,6.4-9.6,14-9.6,23s3.2,16.7,9.6,23.1
		c6.4,6.4,14.1,9.6,23.1,9.6s16.7-3.2,23.1-9.6C920.8,341.8,924,334.1,924,325.2"/>
	<path fill="#003255" d="M1043,362.1c-10.3,10.1-22.6,15.2-37,15.2c-14.5,0-26.8-5.1-37-15.2c-10.2-10.2-15.4-22.5-15.4-36.9
		c0-14.2,4.9-26.5,14.8-36.8c9.9-10.3,21.8-15.5,36-15.5c13.3,0,24.8,4.6,34.4,13.9v-56.7h19.7v95.1
		C1058.5,339.5,1053.3,351.8,1043,362.1 M1038.8,325.2c0-8.9-3.2-16.5-9.7-23c-6.5-6.4-14.2-9.7-23.1-9.7c-8.9,0-16.6,3.2-23.1,9.7
		c-6.4,6.4-9.6,14-9.6,23s3.2,16.7,9.6,23.1c6.4,6.4,14.1,9.6,23.1,9.6s16.7-3.2,23.1-9.6C1035.6,341.8,1038.8,334.1,1038.8,325.2"
		/>
	<path fill="#003255" d="M414.8,375.7h19.7V317c0-6.6,2.4-12.4,7.3-17.2c4.9-4.9,10.6-7.3,17.3-7.3c6.7,0,12.4,2.4,17.3,7.3
		s7.3,10.6,7.3,17.2v58.6h19.7V317c0-11.6-4.5-21.9-13.4-30.8s-19.1-13.3-30.8-13.3c-9,0-17.2,2.7-24.6,8v-50.8H415v145.6H414.8z"/>
	<path fill="#003255" d="M792.8,377.2c-3.2,0-6.6-0.3-10-0.9c-13.7-2.3-25.6-9.2-32-18.5l16.2-11.1c3.3,4.8,10.8,8.9,19.1,10.3
		c13.7,2.3,23.5-2.8,24.3-7.3c1.3-7.6-2.6-10.5-22.2-16.2c-15.6-4.5-39.2-11.3-34.9-36.3c2.9-17.1,23.5-27.3,47-23.3
		c11.2,1.9,21.2,6.8,28,13.8l-14,13.8c-3.9-4-10.2-7-17.3-8.2c-13.7-2.3-23.5,2.8-24.3,7.3c-1,6,1.6,8.6,21,14.2
		c16.2,4.7,40.6,11.7,36.1,38.3C827.3,367.6,811.9,377.2,792.8,377.2"/>
	<path fill="#003255" d="M1192.9,274.9h-27.4l-62.1,64c0.4-3.2,0.6-6.3,0.6-9.3v-54.7h-19.8v54.8c0,30.9-24.9,73.5-76.3,73.5h-8v19
		h8c30.5,0,53.5-11.9,69.4-28.5l0.2,0.2L1192.9,274.9z"/>
	<path fill="#003255" d="M606.5,288.3c-10.3-10.3-22.6-15.4-37-15.4s-26.7,5.1-37,15.4c-10.2,10.2-15.4,22.5-15.4,36.9
		c0,14.2,4.9,26.5,14.8,36.7c9.9,10.3,21.9,15.4,36,15.4c4.4,0,11.1-1.5,15.8-2.8v-19.7c-4.2,1.5-10.2,3.1-14.2,3.1
		c-9,0-16.7-3.2-23.1-9.6c-6.4-6.4-9.6-14.1-9.6-23.1c0-8.9,3.2-16.6,9.6-23c6.5-6.4,14.2-9.7,23.1-9.7c8.9,0,16.6,3.2,23.1,9.7
		c6.5,6.4,9.7,14.1,9.7,23v38.4v12.1H622v-50.5C621.9,310.9,616.8,298.6,606.5,288.3"/>
</g>
</svg>
