<?xml version="1.0" encoding="utf-8"?>
<!-- Generator: Adobe Illustrator 18.1.1, SVG Export Plug-In . SVG Version: 6.00 Build 0)  -->
<svg version="1.1" id="Lager_1" xmlns="http://www.w3.org/2000/svg" xmlns:xlink="http://www.w3.org/1999/xlink" x="0px" y="0px"
	 viewBox="22.4 141.1 1154.2 345.9" enable-background="new 22.4 141.1 1154.2 345.9" xml:space="preserve">
<g>
	<g>
		<g>
			<path fill="#2EBD59" d="M196.5,141.1C100,141.1,22.4,218.7,22.4,314S100,486.9,195.3,486.9S368.2,409.3,368.2,314
				C369.4,218.7,291.8,141.1,196.5,141.1z M275.3,390.5c-3.5,4.7-9.4,7.1-15.3,3.5c-41.2-24.7-91.8-30.6-151.8-16.5
				c-5.9,1.2-11.8-2.4-12.9-8.2s2.4-11.8,8.2-12.9c65.9-15.3,122.4-8.2,168.2,18.8C276.5,378.7,278.8,385.8,275.3,390.5z
				 M296.5,343.4c-3.5,5.9-11.8,8.2-18.8,4.7c-47.1-28.2-117.6-36.5-172.9-20c-7.1,2.4-14.1-2.4-16.5-9.4
				c-2.4-7.1,2.4-14.1,9.4-16.5c62.4-18.8,141.2-9.4,194.1,23.5C298.8,329.3,300,337.5,296.5,343.4z M298.8,294
				c-55.3-32.9-148.2-36.5-201.2-20c-8.2,2.4-17.6-2.4-20-10.6c-2.4-8.2,2.4-17.6,10.6-20c61.2-18.8,162.4-15.3,227.1,23.5
				c8.2,4.7,10.6,14.1,5.9,22.4C316.5,296.4,305.9,298.7,298.8,294z"/>
		</g>
	</g>
	<g>
		<g>
			<path fill="#2EBD59" d="M494.1,301.1c-29.4-7.1-35.3-11.8-35.3-22.4c0-9.4,9.4-16.5,23.5-16.5c12.9,0,27.1,4.7,41.2,15.3h1.2
				c0,0,1.2,0,1.2-1.2l14.1-20c1.2-1.2,0-2.4,0-2.4c-16.5-12.9-35.3-20-57.6-20c-31.8,0-55.3,18.8-55.3,47.1c0,29.4,20,40,52.9,48.2
				c28.2,7.1,32.9,11.8,32.9,22.4s-9.4,17.6-25.9,17.6c-17.6,0-31.8-5.9-47.1-20h-1.2c0,0-1.2,0-1.2,1.2l-16.5,20
				c-1.2,1.2-1.2,2.4,0,2.4c18.8,16.5,41.2,24.7,65.9,24.7c35.3,0,57.6-18.8,57.6-48.2C544.7,323.4,530.6,309.3,494.1,301.1z"/>
			<path fill="#2EBD59" d="M623.5,271.6c-15.3,0-27.1,5.9-37.6,17.6v-14.1c0-1.2-1.2-2.4-2.4-2.4h-27.1c-1.2,0-2.4,1.2-2.4,2.4
				v151.8c0,1.2,1.2,2.4,2.4,2.4h27.1c1.2,0,2.4-1.2,2.4-2.4v-48.2c10.6,11.8,22.4,16.5,37.6,16.5c28.2,0,56.5-21.2,56.5-62.4
				C680,292.8,651.8,271.6,623.5,271.6z M649.4,334c0,21.2-12.9,35.3-31.8,35.3c-18.8,0-31.8-15.3-31.8-35.3s14.1-35.3,31.8-35.3
				C635.3,298.7,649.4,312.8,649.4,334z"/>
			<path fill="#2EBD59" d="M752.9,271.6c-36.5,0-64.7,28.2-64.7,63.5s28.2,62.4,63.5,62.4c36.5,0,64.7-28.2,64.7-63.5
				S788.2,271.6,752.9,271.6z M752.9,369.3c-18.8,0-34.1-15.3-34.1-35.3s14.1-35.3,32.9-35.3c18.8,0,34.1,15.3,34.1,35.3
				C785.9,355.2,771.8,369.3,752.9,369.3z"/>
			<path fill="#2EBD59" d="M894.1,274h-29.4v-30.6c0-1.2-1.2-2.4-2.4-2.4h-27.1c-1.2,0-2.4,1.2-2.4,2.4V274H820
				c-1.2,0-2.4,1.2-2.4,2.4v23.5c0,1.2,1.2,2.4,2.4,2.4h12.9v60c0,23.5,11.8,36.5,35.3,36.5c9.4,0,17.6-2.4,24.7-5.9
				c1.2,0,1.2-1.2,1.2-1.2v-24.7c0-1.2,0-1.2-1.2-1.2c0,0-1.2,0-2.4,0c-4.7,2.4-10.6,3.5-15.3,3.5c-8.2,0-12.9-3.5-12.9-12.9v-55.3
				h31.8c1.2,0,2.4-1.2,2.4-2.4v-23.5C895.3,274,895.3,274,894.1,274z"/>
			<path fill="#2EBD59" d="M996.5,274v-3.5c0-10.6,4.7-15.3,12.9-15.3c5.9,0,10.6,1.2,15.3,2.4c1.2,0,1.2,0,2.4,0l1.2-1.2v-23.5
				c0-1.2,0-1.2-1.2-2.4c-5.9-1.2-11.8-3.5-22.4-3.5c-24.7,0-37.6,14.1-37.6,40v5.9h-14.1c-1.2,0-2.4,1.2-2.4,2.4v23.5
				c0,1.2,1.2,2.4,2.4,2.4h12.9v91.8c0,1.2,1.2,2.4,2.4,2.4h27.1c1.2,0,2.4-1.2,2.4-2.4v-91.8h24.7l38.8,91.8
				c-4.7,9.4-8.2,11.8-14.1,11.8c-4.7,0-9.4-1.2-15.3-4.7h-1.2c0,0-1.2,0-1.2,1.2l-9.4,20c0,1.2,0,2.4,1.2,2.4
				c9.4,4.7,17.6,7.1,28.2,7.1c20,0,30.6-9.4,40-34.1l45.9-120c0-1.2,0-1.2,0-2.4l-1.2-1.2h-28.2c-1.2,0-1.2,0-2.4,1.2l-28.2,81.2
				l-31.8-81.2c0-1.2-1.2-1.2-2.4-1.2h-44.7V274z"/>
			<path fill="#2EBD59" d="M936.5,274h-27.1c-1.2,0-2.4,1.2-2.4,2.4v116.5c0,1.2,1.2,2.4,2.4,2.4h27.1c1.2,0,2.4-1.2,2.4-2.4V276.4
				C938.8,274,937.6,274,936.5,274z"/>
			<circle fill="#2EBD59" cx="923.5" cy="239.9" r="18.8"/>
		</g>
		<g>
			<path fill="#2EBD59" d="M1157.6,311.6c-10.6,0-18.8-8.2-18.8-18.8c0-10.6,8.2-18.8,18.8-18.8s18.8,8.2,18.8,18.8
				C1177.6,302.2,1168.2,311.6,1157.6,311.6z M1158.8,275.2c-9.4,0-16.5,8.2-16.5,16.5c0,9.4,7.1,16.5,16.5,16.5
				c9.4,0,16.5-8.2,16.5-16.5C1175.3,283.4,1168.2,275.2,1158.8,275.2z M1162.4,294l5.9,7.1h-4.7l-4.7-7.1h-4.7v7.1h-3.5v-20h8.2
				c4.7,0,7.1,2.4,7.1,5.9C1167.1,291.6,1164.7,294,1162.4,294z M1158.8,285.8h-4.7v5.9h4.7c2.4,0,3.5-1.2,3.5-3.5
				C1163.5,286.9,1161.2,285.8,1158.8,285.8z"/>
		</g>
	</g>
</g>
</svg>
