<?xml version="1.0" encoding="utf-8"?>
<!-- Generator: Adobe Illustrator 18.1.1, SVG Export Plug-In . SVG Version: 6.00 Build 0)  -->
<svg version="1.1" id="Lager_1" xmlns="http://www.w3.org/2000/svg" xmlns:xlink="http://www.w3.org/1999/xlink" x="0px" y="0px"
	 viewBox="11.2 235.3 1177.6 155.9" enable-background="new 11.2 235.3 1177.6 155.9" xml:space="preserve">
<g>
	<g>
		<g>
			<path d="M439.6,388.1h-30.2V280.9h-39.1V255h108.5v25.8h-39.1L439.6,388.1L439.6,388.1z"/>
			<path d="M599.6,388.1h-30.4V255h30.4V388.1z"/>
			<path d="M1136.2,361.8h52.6v26.3h-83V255h30.4V361.8z"/>
		</g>
		<path d="M700.9,254.9h49.3c36.3,0,72.5,19.3,72.5,66.2c0,44.3-35.4,66.8-70.8,66.8h-51V254.9z M730.3,362h18.8
			c25.4,0,42.3-15.8,42.3-41c0-24-17.1-40.1-41.5-40.1h-19.6V362z"/>
		<path d="M991.3,388.1h33.3L969.8,255h-31.5l-55.4,133.1h32.6l9.9-26.3h56.2L991.3,388.1z M933.7,338.2l20-52.1l19.9,52.1H933.7z"
			/>
	</g>
	<g>
		<polygon points="167.1,274.3 128.1,313.3 89.1,274.3 128.1,235.3 		"/>
		<rect x="100.6" y="324.7" transform="matrix(0.7071 -0.7071 0.7071 0.7071 -211.5813 193.7651)" width="55.1" height="55.1"/>
		<polygon points="89.1,274.3 50.2,313.3 11.2,274.3 50.2,235.3 		"/>
		<polygon points="245.1,274.3 206.1,313.3 167.1,274.3 206.1,235.3 		"/>
	</g>
</g>
</svg>
